<?xml version="1.0" encoding="UTF-8" standalone="no"?>
<!DOCTYPE svg PUBLIC "-//W3C//DTD SVG 1.1//EN"
 "http://www.w3.org/Graphics/SVG/1.1/DTD/svg11.dtd">
<!-- Generated by graphviz version 12.1.2 (20240928.0832)
 -->
<!-- Title: core.lost_reason Pages: 1 -->
<svg width="633pt" height="1126pt"
 viewBox="0.00 0.00 633.28 1125.60" xmlns="http://www.w3.org/2000/svg" xmlns:xlink="http://www.w3.org/1999/xlink">
<g id="graph0" class="graph" transform="scale(1 1) rotate(0) translate(4 1121.6)">
<title>core.lost_reason</title>
<polygon fill="white" stroke="none" points="-4,4 -4,-1121.6 629.28,-1121.6 629.28,4 -4,4"/>
<!-- core.lost_reason -->
<g id="node1" class="node">
<title>core.lost_reason</title>
<polygon fill="#efefef" stroke="none" points="46.21,-261.8 46.21,-297.4 302.16,-297.4 302.16,-261.8 46.21,-261.8"/>
<polygon fill="none" stroke="black" points="46.21,-261.8 46.21,-297.4 302.16,-297.4 302.16,-261.8 46.21,-261.8"/>
<text text-anchor="start" x="53.21" y="-275.2" font-family="Arial Bold" font-size="18.00">core.lost_reason</text>
<text text-anchor="start" x="170.67" y="-275.2" font-family="Arial" font-size="14.00">    </text>
<text text-anchor="start" x="201.79" y="-275.2" font-family="Arial" font-size="14.00" fill="#666666">[BASE TABLE]</text>
<polygon fill="none" stroke="black" points="46.21,-231 46.21,-261.8 302.16,-261.8 302.16,-231 46.21,-231"/>
<text text-anchor="start" x="53.21" y="-243.2" font-family="Arial" font-size="14.00">id </text>
<text text-anchor="start" x="68" y="-243.2" font-family="Arial" font-size="14.00" fill="#666666">[uuid]</text>
<polygon fill="none" stroke="black" points="46.21,-200.2 46.21,-231 302.16,-231 302.16,-200.2 46.21,-200.2"/>
<text text-anchor="start" x="53.21" y="-212.4" font-family="Arial" font-size="14.00">name </text>
<text text-anchor="start" x="92.12" y="-212.4" font-family="Arial" font-size="14.00" fill="#666666">[text]</text>
<polygon fill="none" stroke="black" points="46.21,-169.4 46.21,-200.2 302.16,-200.2 302.16,-169.4 46.21,-169.4"/>
<text text-anchor="start" x="53.21" y="-181.6" font-family="Arial" font-size="14.00">category </text>
<text text-anchor="start" x="110.8" y="-181.6" font-family="Arial" font-size="14.00" fill="#666666">[text]</text>
<polygon fill="none" stroke="black" points="46.21,-138.6 46.21,-169.4 302.16,-169.4 302.16,-138.6 46.21,-138.6"/>
<text text-anchor="start" x="53.21" y="-150.8" font-family="Arial" font-size="14.00">sort_order </text>
<text text-anchor="start" x="120.91" y="-150.8" font-family="Arial" font-size="14.00" fill="#666666">[integer]</text>
<polygon fill="none" stroke="black" points="46.21,-107.8 46.21,-138.6 302.16,-138.6 302.16,-107.8 46.21,-107.8"/>
<text text-anchor="start" x="53.21" y="-120" font-family="Arial" font-size="14.00">active </text>
<text text-anchor="start" x="93.68" y="-120" font-family="Arial" font-size="14.00" fill="#666666">[boolean]</text>
<polygon fill="none" stroke="black" points="46.21,-77 46.21,-107.8 302.16,-107.8 302.16,-77 46.21,-77"/>
<text text-anchor="start" x="53.21" y="-89.2" font-family="Arial" font-size="14.00">created_at </text>
<text text-anchor="start" x="123.26" y="-89.2" font-family="Arial" font-size="14.00" fill="#666666">[timestamp with time zone]</text>
<polygon fill="none" stroke="black" points="46.21,-46.2 46.21,-77 302.16,-77 302.16,-46.2 46.21,-46.2"/>
<text text-anchor="start" x="53.21" y="-58.4" font-family="Arial" font-size="14.00">updated_at </text>
<text text-anchor="start" x="127.17" y="-58.4" font-family="Arial" font-size="14.00" fill="#666666">[timestamp with time zone]</text>
<polygon fill="none" stroke="black" stroke-width="3" points="44.71,-44.7 44.71,-298.9 303.66,-298.9 303.66,-44.7 44.71,-44.7"/>
</g>
<!-- sales.opportunity -->
<g id="node2" class="node">
<title>sales.opportunity</title>
<polygon fill="#efefef" stroke="none" points="43.2,-1038.8 43.2,-1074.4 305.18,-1074.4 305.18,-1038.8 43.2,-1038.8"/>
<polygon fill="none" stroke="black" points="43.2,-1038.8 43.2,-1074.4 305.18,-1074.4 305.18,-1038.8 43.2,-1038.8"/>
<text text-anchor="start" x="50.2" y="-1052.2" font-family="Arial Bold" font-size="18.00">sales.opportunity</text>
<text text-anchor="start" x="173.69" y="-1052.2" font-family="Arial" font-size="14.00">    </text>
<text text-anchor="start" x="204.8" y="-1052.2" font-family="Arial" font-size="14.00" fill="#666666">[BASE TABLE]</text>
<polygon fill="none" stroke="black" points="43.2,-1008 43.2,-1038.8 305.18,-1038.8 305.18,-1008 43.2,-1008"/>
<text text-anchor="start" x="50.2" y="-1020.2" font-family="Arial" font-size="14.00">id </text>
<text text-anchor="start" x="64.99" y="-1020.2" font-family="Arial" font-size="14.00" fill="#666666">[uuid]</text>
<polygon fill="none" stroke="black" points="43.2,-977.2 43.2,-1008 305.18,-1008 305.18,-977.2 43.2,-977.2"/>
<text text-anchor="start" x="50.2" y="-989.4" font-family="Arial" font-size="14.00">contact_id </text>
<text text-anchor="start" x="117.91" y="-989.4" font-family="Arial" font-size="14.00" fill="#666666">[uuid]</text>
<polygon fill="none" stroke="black" points="43.2,-946.4 43.2,-977.2 305.18,-977.2 305.18,-946.4 43.2,-946.4"/>
<text text-anchor="start" x="50.2" y="-958.6" font-family="Arial" font-size="14.00">stage </text>
<text text-anchor="start" x="88.34" y="-958.6" font-family="Arial" font-size="14.00" fill="#666666">[opportunity_stage]</text>
<polygon fill="none" stroke="black" points="43.2,-915.6 43.2,-946.4 305.18,-946.4 305.18,-915.6 43.2,-915.6"/>
<text text-anchor="start" x="50.2" y="-927.8" font-family="Arial" font-size="14.00">qualified </text>
<text text-anchor="start" x="106.24" y="-927.8" font-family="Arial" font-size="14.00" fill="#666666">[boolean]</text>
<polygon fill="none" stroke="black" points="43.2,-884.8 43.2,-915.6 305.18,-915.6 305.18,-884.8 43.2,-884.8"/>
<text text-anchor="start" x="50.2" y="-897" font-family="Arial" font-size="14.00">dq_stage </text>
<text text-anchor="start" x="111.7" y="-897" font-family="Arial" font-size="14.00" fill="#666666">[dq_stage]</text>
<polygon fill="none" stroke="black" points="43.2,-854 43.2,-884.8 305.18,-884.8 305.18,-854 43.2,-854"/>
<text text-anchor="start" x="50.2" y="-866.2" font-family="Arial" font-size="14.00">dq_reason_id </text>
<text text-anchor="start" x="138.94" y="-866.2" font-family="Arial" font-size="14.00" fill="#666666">[uuid]</text>
<polygon fill="none" stroke="black" points="43.2,-823.2 43.2,-854 305.18,-854 305.18,-823.2 43.2,-823.2"/>
<text text-anchor="start" x="50.2" y="-835.4" font-family="Arial" font-size="14.00">owner_rep_id </text>
<text text-anchor="start" x="138.92" y="-835.4" font-family="Arial" font-size="14.00" fill="#666666">[uuid]</text>
<polygon fill="none" stroke="black" points="43.2,-792.4 43.2,-823.2 305.18,-823.2 305.18,-792.4 43.2,-792.4"/>
<text text-anchor="start" x="50.2" y="-804.6" font-family="Arial" font-size="14.00">first_touch_channel </text>
<text text-anchor="start" x="175.5" y="-804.6" font-family="Arial" font-size="14.00" fill="#666666">[text]</text>
<polygon fill="none" stroke="black" points="43.2,-761.6 43.2,-792.4 305.18,-792.4 305.18,-761.6 43.2,-761.6"/>
<text text-anchor="start" x="50.2" y="-773.8" font-family="Arial" font-size="14.00">converting_touch_channel </text>
<text text-anchor="start" x="217.54" y="-773.8" font-family="Arial" font-size="14.00" fill="#666666">[text]</text>
<polygon fill="none" stroke="black" points="43.2,-730.8 43.2,-761.6 305.18,-761.6 305.18,-730.8 43.2,-730.8"/>
<text text-anchor="start" x="50.2" y="-743" font-family="Arial" font-size="14.00">cohort_month </text>
<text text-anchor="start" x="139.7" y="-743" font-family="Arial" font-size="14.00" fill="#666666">[date]</text>
<polygon fill="none" stroke="black" points="43.2,-700 43.2,-730.8 305.18,-730.8 305.18,-700 43.2,-700"/>
<text text-anchor="start" x="50.2" y="-712.2" font-family="Arial" font-size="14.00">current_nafa_id </text>
<text text-anchor="start" x="151.38" y="-712.2" font-family="Arial" font-size="14.00" fill="#666666">[uuid]</text>
<polygon fill="none" stroke="black" points="43.2,-669.2 43.2,-700 305.18,-700 305.18,-669.2 43.2,-669.2"/>
<text text-anchor="start" x="50.2" y="-681.4" font-family="Arial" font-size="14.00">opened_at </text>
<text text-anchor="start" x="120.27" y="-681.4" font-family="Arial" font-size="14.00" fill="#666666">[timestamp with time zone]</text>
<polygon fill="none" stroke="black" points="43.2,-638.4 43.2,-669.2 305.18,-669.2 305.18,-638.4 43.2,-638.4"/>
<text text-anchor="start" x="50.2" y="-650.6" font-family="Arial" font-size="14.00">closed_at </text>
<text text-anchor="start" x="114.02" y="-650.6" font-family="Arial" font-size="14.00" fill="#666666">[timestamp with time zone]</text>
<polygon fill="none" stroke="black" points="43.2,-607.6 43.2,-638.4 305.18,-638.4 305.18,-607.6 43.2,-607.6"/>
<text text-anchor="start" x="50.2" y="-619.8" font-family="Arial" font-size="14.00">close_id </text>
<text text-anchor="start" x="105.45" y="-619.8" font-family="Arial" font-size="14.00" fill="#666666">[text]</text>
<polygon fill="none" stroke="black" points="43.2,-576.8 43.2,-607.6 305.18,-607.6 305.18,-576.8 43.2,-576.8"/>
<text text-anchor="start" x="50.2" y="-589" font-family="Arial" font-size="14.00">ghl_marketing_opp_id </text>
<text text-anchor="start" x="191.85" y="-589" font-family="Arial" font-size="14.00" fill="#666666">[text]</text>
<polygon fill="none" stroke="black" points="43.2,-546 43.2,-576.8 305.18,-576.8 305.18,-546 43.2,-546"/>
<text text-anchor="start" x="50.2" y="-558.2" font-family="Arial" font-size="14.00">monday_lead_source_item </text>
<text text-anchor="start" x="222.19" y="-558.2" font-family="Arial" font-size="14.00" fill="#666666">[text]</text>
<polygon fill="none" stroke="black" points="43.2,-515.2 43.2,-546 305.18,-546 305.18,-515.2 43.2,-515.2"/>
<text text-anchor="start" x="50.2" y="-527.4" font-family="Arial" font-size="14.00">created_at </text>
<text text-anchor="start" x="120.25" y="-527.4" font-family="Arial" font-size="14.00" fill="#666666">[timestamp with time zone]</text>
<polygon fill="none" stroke="black" points="43.2,-484.4 43.2,-515.2 305.18,-515.2 305.18,-484.4 43.2,-484.4"/>
<text text-anchor="start" x="50.2" y="-496.6" font-family="Arial" font-size="14.00">updated_at </text>
<text text-anchor="start" x="124.16" y="-496.6" font-family="Arial" font-size="14.00" fill="#666666">[timestamp with time zone]</text>
<polygon fill="none" stroke="black" points="43.2,-453.6 43.2,-484.4 305.18,-484.4 305.18,-453.6 43.2,-453.6"/>
<text text-anchor="start" x="50.2" y="-465.8" font-family="Arial" font-size="14.00">lost_reason_id </text>
<text text-anchor="start" x="145.15" y="-465.8" font-family="Arial" font-size="14.00" fill="#666666">[uuid]</text>
<polygon fill="none" stroke="black" points="43.2,-422.8 43.2,-453.6 305.18,-453.6 305.18,-422.8 43.2,-422.8"/>
<text text-anchor="start" x="50.2" y="-435" font-family="Arial" font-size="14.00">is_demo </text>
<text text-anchor="start" x="107.01" y="-435" font-family="Arial" font-size="14.00" fill="#666666">[boolean]</text>
</g>
<!-- sales.opportunity&#45;&gt;core.lost_reason -->
<g id="edge1" class="edge">
<title>sales.opportunity:lost_reason_id&#45;&gt;core.lost_reason:id</title>
<path fill="none" stroke="black" d="M316.5,-468.15C404.77,-453.2 398.53,-246.4 303.16,-246.4"/>
<polygon fill="black" stroke="black" points="316.48,-468.15 306.14,-464.49 311.16,-468.59 306.84,-468.95 306.84,-468.95 306.84,-468.95 311.16,-468.59 306.88,-473.46 316.48,-468.15"/>
<text text-anchor="start" x="313.18" y="-479" font-family="Arial" font-size="10.00">FOREIGN KEY (lost_reason_id) REFERENCES core.lost_reason(id)</text>
</g>
</g>
</svg>
