<?xml version="1.0" encoding="UTF-8" standalone="no"?>
<!DOCTYPE svg PUBLIC "-//W3C//DTD SVG 1.1//EN"
 "http://www.w3.org/Graphics/SVG/1.1/DTD/svg11.dtd">
<!-- Generated by graphviz version 12.1.2 (20240928.0832)
 -->
<!-- Title: core.dq_reason Pages: 1 -->
<svg width="780pt" height="1618pt"
 viewBox="0.00 0.00 779.52 1618.40" xmlns="http://www.w3.org/2000/svg" xmlns:xlink="http://www.w3.org/1999/xlink">
<g id="graph0" class="graph" transform="scale(1 1) rotate(0) translate(4 1614.4)">
<title>core.dq_reason</title>
<polygon fill="white" stroke="none" points="-4,4 -4,-1614.4 775.52,-1614.4 775.52,4 -4,4"/>
<!-- core.dq_reason -->
<g id="node1" class="node">
<title>core.dq_reason</title>
<polygon fill="#efefef" stroke="none" points="244.35,-261.8 244.35,-297.4 498.03,-297.4 498.03,-261.8 244.35,-261.8"/>
<polygon fill="none" stroke="black" points="244.35,-261.8 244.35,-297.4 498.03,-297.4 498.03,-261.8 244.35,-261.8"/>
<text text-anchor="start" x="254.22" y="-275.2" font-family="Arial Bold" font-size="18.00">core.dq_reason</text>
<text text-anchor="start" x="363.67" y="-275.2" font-family="Arial" font-size="14.00">    </text>
<text text-anchor="start" x="394.79" y="-275.2" font-family="Arial" font-size="14.00" fill="#666666">[BASE TABLE]</text>
<polygon fill="none" stroke="black" points="244.35,-231 244.35,-261.8 498.03,-261.8 498.03,-231 244.35,-231"/>
<text text-anchor="start" x="251.35" y="-243.2" font-family="Arial" font-size="14.00">id </text>
<text text-anchor="start" x="266.13" y="-243.2" font-family="Arial" font-size="14.00" fill="#666666">[uuid]</text>
<polygon fill="none" stroke="black" points="244.35,-200.2 244.35,-231 498.03,-231 498.03,-200.2 244.35,-200.2"/>
<text text-anchor="start" x="251.35" y="-212.4" font-family="Arial" font-size="14.00">name </text>
<text text-anchor="start" x="290.26" y="-212.4" font-family="Arial" font-size="14.00" fill="#666666">[text]</text>
<polygon fill="none" stroke="black" points="244.35,-169.4 244.35,-200.2 498.03,-200.2 498.03,-169.4 244.35,-169.4"/>
<text text-anchor="start" x="251.35" y="-181.6" font-family="Arial" font-size="14.00">category </text>
<text text-anchor="start" x="308.93" y="-181.6" font-family="Arial" font-size="14.00" fill="#666666">[text]</text>
<polygon fill="none" stroke="black" points="244.35,-138.6 244.35,-169.4 498.03,-169.4 498.03,-138.6 244.35,-138.6"/>
<text text-anchor="start" x="251.35" y="-150.8" font-family="Arial" font-size="14.00">sort_order </text>
<text text-anchor="start" x="319.04" y="-150.8" font-family="Arial" font-size="14.00" fill="#666666">[integer]</text>
<polygon fill="none" stroke="black" points="244.35,-107.8 244.35,-138.6 498.03,-138.6 498.03,-107.8 244.35,-107.8"/>
<text text-anchor="start" x="251.35" y="-120" font-family="Arial" font-size="14.00">active </text>
<text text-anchor="start" x="291.81" y="-120" font-family="Arial" font-size="14.00" fill="#666666">[boolean]</text>
<polygon fill="none" stroke="black" points="244.35,-77 244.35,-107.8 498.03,-107.8 498.03,-77 244.35,-77"/>
<text text-anchor="start" x="251.35" y="-89.2" font-family="Arial" font-size="14.00">created_at </text>
<text text-anchor="start" x="321.39" y="-89.2" font-family="Arial" font-size="14.00" fill="#666666">[timestamp with time zone]</text>
<polygon fill="none" stroke="black" points="244.35,-46.2 244.35,-77 498.03,-77 498.03,-46.2 244.35,-46.2"/>
<text text-anchor="start" x="251.35" y="-58.4" font-family="Arial" font-size="14.00">updated_at </text>
<text text-anchor="start" x="325.3" y="-58.4" font-family="Arial" font-size="14.00" fill="#666666">[timestamp with time zone]</text>
<polygon fill="none" stroke="black" stroke-width="3" points="242.85,-44.7 242.85,-298.9 499.53,-298.9 499.53,-44.7 242.85,-44.7"/>
</g>
<!-- sales.opportunity -->
<g id="node2" class="node">
<title>sales.opportunity</title>
<polygon fill="#efefef" stroke="none" points="43.2,-1285.2 43.2,-1320.8 305.18,-1320.8 305.18,-1285.2 43.2,-1285.2"/>
<polygon fill="none" stroke="black" points="43.2,-1285.2 43.2,-1320.8 305.18,-1320.8 305.18,-1285.2 43.2,-1285.2"/>
<text text-anchor="start" x="50.2" y="-1298.6" font-family="Arial Bold" font-size="18.00">sales.opportunity</text>
<text text-anchor="start" x="173.69" y="-1298.6" font-family="Arial" font-size="14.00">    </text>
<text text-anchor="start" x="204.8" y="-1298.6" font-family="Arial" font-size="14.00" fill="#666666">[BASE TABLE]</text>
<polygon fill="none" stroke="black" points="43.2,-1254.4 43.2,-1285.2 305.18,-1285.2 305.18,-1254.4 43.2,-1254.4"/>
<text text-anchor="start" x="50.2" y="-1266.6" font-family="Arial" font-size="14.00">id </text>
<text text-anchor="start" x="64.99" y="-1266.6" font-family="Arial" font-size="14.00" fill="#666666">[uuid]</text>
<polygon fill="none" stroke="black" points="43.2,-1223.6 43.2,-1254.4 305.18,-1254.4 305.18,-1223.6 43.2,-1223.6"/>
<text text-anchor="start" x="50.2" y="-1235.8" font-family="Arial" font-size="14.00">contact_id </text>
<text text-anchor="start" x="117.91" y="-1235.8" font-family="Arial" font-size="14.00" fill="#666666">[uuid]</text>
<polygon fill="none" stroke="black" points="43.2,-1192.8 43.2,-1223.6 305.18,-1223.6 305.18,-1192.8 43.2,-1192.8"/>
<text text-anchor="start" x="50.2" y="-1205" font-family="Arial" font-size="14.00">stage </text>
<text text-anchor="start" x="88.34" y="-1205" font-family="Arial" font-size="14.00" fill="#666666">[opportunity_stage]</text>
<polygon fill="none" stroke="black" points="43.2,-1162 43.2,-1192.8 305.18,-1192.8 305.18,-1162 43.2,-1162"/>
<text text-anchor="start" x="50.2" y="-1174.2" font-family="Arial" font-size="14.00">qualified </text>
<text text-anchor="start" x="106.24" y="-1174.2" font-family="Arial" font-size="14.00" fill="#666666">[boolean]</text>
<polygon fill="none" stroke="black" points="43.2,-1131.2 43.2,-1162 305.18,-1162 305.18,-1131.2 43.2,-1131.2"/>
<text text-anchor="start" x="50.2" y="-1143.4" font-family="Arial" font-size="14.00">dq_stage </text>
<text text-anchor="start" x="111.7" y="-1143.4" font-family="Arial" font-size="14.00" fill="#666666">[dq_stage]</text>
<polygon fill="none" stroke="black" points="43.2,-1100.4 43.2,-1131.2 305.18,-1131.2 305.18,-1100.4 43.2,-1100.4"/>
<text text-anchor="start" x="50.2" y="-1112.6" font-family="Arial" font-size="14.00">dq_reason_id </text>
<text text-anchor="start" x="138.94" y="-1112.6" font-family="Arial" font-size="14.00" fill="#666666">[uuid]</text>
<polygon fill="none" stroke="black" points="43.2,-1069.6 43.2,-1100.4 305.18,-1100.4 305.18,-1069.6 43.2,-1069.6"/>
<text text-anchor="start" x="50.2" y="-1081.8" font-family="Arial" font-size="14.00">owner_rep_id </text>
<text text-anchor="start" x="138.92" y="-1081.8" font-family="Arial" font-size="14.00" fill="#666666">[uuid]</text>
<polygon fill="none" stroke="black" points="43.2,-1038.8 43.2,-1069.6 305.18,-1069.6 305.18,-1038.8 43.2,-1038.8"/>
<text text-anchor="start" x="50.2" y="-1051" font-family="Arial" font-size="14.00">first_touch_channel </text>
<text text-anchor="start" x="175.5" y="-1051" font-family="Arial" font-size="14.00" fill="#666666">[text]</text>
<polygon fill="none" stroke="black" points="43.2,-1008 43.2,-1038.8 305.18,-1038.8 305.18,-1008 43.2,-1008"/>
<text text-anchor="start" x="50.2" y="-1020.2" font-family="Arial" font-size="14.00">converting_touch_channel </text>
<text text-anchor="start" x="217.54" y="-1020.2" font-family="Arial" font-size="14.00" fill="#666666">[text]</text>
<polygon fill="none" stroke="black" points="43.2,-977.2 43.2,-1008 305.18,-1008 305.18,-977.2 43.2,-977.2"/>
<text text-anchor="start" x="50.2" y="-989.4" font-family="Arial" font-size="14.00">cohort_month </text>
<text text-anchor="start" x="139.7" y="-989.4" font-family="Arial" font-size="14.00" fill="#666666">[date]</text>
<polygon fill="none" stroke="black" points="43.2,-946.4 43.2,-977.2 305.18,-977.2 305.18,-946.4 43.2,-946.4"/>
<text text-anchor="start" x="50.2" y="-958.6" font-family="Arial" font-size="14.00">current_nafa_id </text>
<text text-anchor="start" x="151.38" y="-958.6" font-family="Arial" font-size="14.00" fill="#666666">[uuid]</text>
<polygon fill="none" stroke="black" points="43.2,-915.6 43.2,-946.4 305.18,-946.4 305.18,-915.6 43.2,-915.6"/>
<text text-anchor="start" x="50.2" y="-927.8" font-family="Arial" font-size="14.00">opened_at </text>
<text text-anchor="start" x="120.27" y="-927.8" font-family="Arial" font-size="14.00" fill="#666666">[timestamp with time zone]</text>
<polygon fill="none" stroke="black" points="43.2,-884.8 43.2,-915.6 305.18,-915.6 305.18,-884.8 43.2,-884.8"/>
<text text-anchor="start" x="50.2" y="-897" font-family="Arial" font-size="14.00">closed_at </text>
<text text-anchor="start" x="114.02" y="-897" font-family="Arial" font-size="14.00" fill="#666666">[timestamp with time zone]</text>
<polygon fill="none" stroke="black" points="43.2,-854 43.2,-884.8 305.18,-884.8 305.18,-854 43.2,-854"/>
<text text-anchor="start" x="50.2" y="-866.2" font-family="Arial" font-size="14.00">close_id </text>
<text text-anchor="start" x="105.45" y="-866.2" font-family="Arial" font-size="14.00" fill="#666666">[text]</text>
<polygon fill="none" stroke="black" points="43.2,-823.2 43.2,-854 305.18,-854 305.18,-823.2 43.2,-823.2"/>
<text text-anchor="start" x="50.2" y="-835.4" font-family="Arial" font-size="14.00">ghl_marketing_opp_id </text>
<text text-anchor="start" x="191.85" y="-835.4" font-family="Arial" font-size="14.00" fill="#666666">[text]</text>
<polygon fill="none" stroke="black" points="43.2,-792.4 43.2,-823.2 305.18,-823.2 305.18,-792.4 43.2,-792.4"/>
<text text-anchor="start" x="50.2" y="-804.6" font-family="Arial" font-size="14.00">monday_lead_source_item </text>
<text text-anchor="start" x="222.19" y="-804.6" font-family="Arial" font-size="14.00" fill="#666666">[text]</text>
<polygon fill="none" stroke="black" points="43.2,-761.6 43.2,-792.4 305.18,-792.4 305.18,-761.6 43.2,-761.6"/>
<text text-anchor="start" x="50.2" y="-773.8" font-family="Arial" font-size="14.00">created_at </text>
<text text-anchor="start" x="120.25" y="-773.8" font-family="Arial" font-size="14.00" fill="#666666">[timestamp with time zone]</text>
<polygon fill="none" stroke="black" points="43.2,-730.8 43.2,-761.6 305.18,-761.6 305.18,-730.8 43.2,-730.8"/>
<text text-anchor="start" x="50.2" y="-743" font-family="Arial" font-size="14.00">updated_at </text>
<text text-anchor="start" x="124.16" y="-743" font-family="Arial" font-size="14.00" fill="#666666">[timestamp with time zone]</text>
<polygon fill="none" stroke="black" points="43.2,-700 43.2,-730.8 305.18,-730.8 305.18,-700 43.2,-700"/>
<text text-anchor="start" x="50.2" y="-712.2" font-family="Arial" font-size="14.00">lost_reason_id </text>
<text text-anchor="start" x="145.15" y="-712.2" font-family="Arial" font-size="14.00" fill="#666666">[uuid]</text>
<polygon fill="none" stroke="black" points="43.2,-669.2 43.2,-700 305.18,-700 305.18,-669.2 43.2,-669.2"/>
<text text-anchor="start" x="50.2" y="-681.4" font-family="Arial" font-size="14.00">is_demo </text>
<text text-anchor="start" x="107.01" y="-681.4" font-family="Arial" font-size="14.00" fill="#666666">[boolean]</text>
</g>
<!-- sales.opportunity&#45;&gt;core.dq_reason -->
<g id="edge1" class="edge">
<title>sales.opportunity:dq_reason_id&#45;&gt;core.dq_reason:id</title>
<path fill="none" stroke="black" d="M316.34,-1114.56C408.59,-1090.76 316.42,-730.63 305.18,-626 291.45,-498.35 258.6,-471.2 244.35,-343.6 239.55,-300.66 200.14,-246.4 243.35,-246.4"/>
<polygon fill="black" stroke="black" points="316.43,-1114.55 305.96,-1111.29 311.14,-1115.2 306.84,-1115.72 306.84,-1115.72 306.84,-1115.72 311.14,-1115.2 307.05,-1120.23 316.43,-1114.55"/>
<text text-anchor="start" x="313.18" y="-1125.8" font-family="Arial" font-size="10.00">FOREIGN KEY (dq_reason_id) REFERENCES core.dq_reason(id)</text>
</g>
<!-- sales.call -->
<g id="node3" class="node">
<title>sales.call</title>
<polygon fill="#efefef" stroke="none" points="410.06,-1531.6 410.06,-1567.2 728.32,-1567.2 728.32,-1531.6 410.06,-1531.6"/>
<polygon fill="none" stroke="black" points="410.06,-1531.6 410.06,-1567.2 728.32,-1567.2 728.32,-1531.6 410.06,-1531.6"/>
<text text-anchor="start" x="474.21" y="-1545" font-family="Arial Bold" font-size="18.00">sales.call</text>
<text text-anchor="start" x="539.68" y="-1545" font-family="Arial" font-size="14.00">    </text>
<text text-anchor="start" x="570.8" y="-1545" font-family="Arial" font-size="14.00" fill="#666666">[BASE TABLE]</text>
<polygon fill="none" stroke="black" points="410.06,-1500.8 410.06,-1531.6 728.32,-1531.6 728.32,-1500.8 410.06,-1500.8"/>
<text text-anchor="start" x="417.06" y="-1513" font-family="Arial" font-size="14.00">id </text>
<text text-anchor="start" x="431.84" y="-1513" font-family="Arial" font-size="14.00" fill="#666666">[uuid]</text>
<polygon fill="none" stroke="black" points="410.06,-1470 410.06,-1500.8 728.32,-1500.8 728.32,-1470 410.06,-1470"/>
<text text-anchor="start" x="417.06" y="-1482.2" font-family="Arial" font-size="14.00">opportunity_id </text>
<text text-anchor="start" x="508.9" y="-1482.2" font-family="Arial" font-size="14.00" fill="#666666">[uuid]</text>
<polygon fill="none" stroke="black" points="410.06,-1439.2 410.06,-1470 728.32,-1470 728.32,-1439.2 410.06,-1439.2"/>
<text text-anchor="start" x="417.06" y="-1451.4" font-family="Arial" font-size="14.00">type </text>
<text text-anchor="start" x="447.41" y="-1451.4" font-family="Arial" font-size="14.00" fill="#666666">[call_type]</text>
<polygon fill="none" stroke="black" points="410.06,-1408.4 410.06,-1439.2 728.32,-1439.2 728.32,-1408.4 410.06,-1408.4"/>
<text text-anchor="start" x="417.06" y="-1420.6" font-family="Arial" font-size="14.00">rep_id </text>
<text text-anchor="start" x="459.86" y="-1420.6" font-family="Arial" font-size="14.00" fill="#666666">[uuid]</text>
<polygon fill="none" stroke="black" points="410.06,-1377.6 410.06,-1408.4 728.32,-1408.4 728.32,-1377.6 410.06,-1377.6"/>
<text text-anchor="start" x="417.06" y="-1389.8" font-family="Arial" font-size="14.00">scheduled_at </text>
<text text-anchor="start" x="504.24" y="-1389.8" font-family="Arial" font-size="14.00" fill="#666666">[timestamp with time zone]</text>
<polygon fill="none" stroke="black" points="410.06,-1346.8 410.06,-1377.6 728.32,-1377.6 728.32,-1346.8 410.06,-1346.8"/>
<text text-anchor="start" x="417.06" y="-1359" font-family="Arial" font-size="14.00">current_scheduled_at </text>
<text text-anchor="start" x="555.59" y="-1359" font-family="Arial" font-size="14.00" fill="#666666">[timestamp with time zone]</text>
<polygon fill="none" stroke="black" points="410.06,-1316 410.06,-1346.8 728.32,-1346.8 728.32,-1316 410.06,-1316"/>
<text text-anchor="start" x="417.06" y="-1328.2" font-family="Arial" font-size="14.00">occurred_at </text>
<text text-anchor="start" x="494.88" y="-1328.2" font-family="Arial" font-size="14.00" fill="#666666">[timestamp with time zone]</text>
<polygon fill="none" stroke="black" points="410.06,-1285.2 410.06,-1316 728.32,-1316 728.32,-1285.2 410.06,-1285.2"/>
<text text-anchor="start" x="417.06" y="-1297.4" font-family="Arial" font-size="14.00">recording_url </text>
<text text-anchor="start" x="502.66" y="-1297.4" font-family="Arial" font-size="14.00" fill="#666666">[text]</text>
<polygon fill="none" stroke="black" points="410.06,-1254.4 410.06,-1285.2 728.32,-1285.2 728.32,-1254.4 410.06,-1254.4"/>
<text text-anchor="start" x="417.06" y="-1266.6" font-family="Arial" font-size="14.00">transcript_text </text>
<text text-anchor="start" x="508.87" y="-1266.6" font-family="Arial" font-size="14.00" fill="#666666">[text]</text>
<polygon fill="none" stroke="black" points="410.06,-1223.6 410.06,-1254.4 728.32,-1254.4 728.32,-1223.6 410.06,-1223.6"/>
<text text-anchor="start" x="417.06" y="-1235.8" font-family="Arial" font-size="14.00">dq_reason_id </text>
<text text-anchor="start" x="505.79" y="-1235.8" font-family="Arial" font-size="14.00" fill="#666666">[uuid]</text>
<polygon fill="none" stroke="black" points="410.06,-1192.8 410.06,-1223.6 728.32,-1223.6 728.32,-1192.8 410.06,-1192.8"/>
<text text-anchor="start" x="417.06" y="-1205" font-family="Arial" font-size="14.00">booking_payment_id </text>
<text text-anchor="start" x="550.15" y="-1205" font-family="Arial" font-size="14.00" fill="#666666">[uuid]</text>
<polygon fill="none" stroke="black" points="410.06,-1162 410.06,-1192.8 728.32,-1192.8 728.32,-1162 410.06,-1162"/>
<text text-anchor="start" x="417.06" y="-1174.2" font-family="Arial" font-size="14.00">booking_source_channel </text>
<text text-anchor="start" x="576.62" y="-1174.2" font-family="Arial" font-size="14.00" fill="#666666">[text]</text>
<polygon fill="none" stroke="black" points="410.06,-1131.2 410.06,-1162 728.32,-1162 728.32,-1131.2 410.06,-1131.2"/>
<text text-anchor="start" x="417.06" y="-1143.4" font-family="Arial" font-size="14.00">booking_source_campaign </text>
<text text-anchor="start" x="588.28" y="-1143.4" font-family="Arial" font-size="14.00" fill="#666666">[text]</text>
<polygon fill="none" stroke="black" points="410.06,-1100.4 410.06,-1131.2 728.32,-1131.2 728.32,-1100.4 410.06,-1100.4"/>
<text text-anchor="start" x="417.06" y="-1112.6" font-family="Arial" font-size="14.00">booking_utm </text>
<text text-anchor="start" x="501.11" y="-1112.6" font-family="Arial" font-size="14.00" fill="#666666">[text]</text>
<polygon fill="none" stroke="black" points="410.06,-1069.6 410.06,-1100.4 728.32,-1100.4 728.32,-1069.6 410.06,-1069.6"/>
<text text-anchor="start" x="417.06" y="-1081.8" font-family="Arial" font-size="14.00">booking_dub_link_id </text>
<text text-anchor="start" x="548.61" y="-1081.8" font-family="Arial" font-size="14.00" fill="#666666">[text]</text>
<polygon fill="none" stroke="black" points="410.06,-1038.8 410.06,-1069.6 728.32,-1069.6 728.32,-1038.8 410.06,-1038.8"/>
<text text-anchor="start" x="417.06" y="-1051" font-family="Arial" font-size="14.00">nafa_id </text>
<text text-anchor="start" x="466.88" y="-1051" font-family="Arial" font-size="14.00" fill="#666666">[uuid]</text>
<polygon fill="none" stroke="black" points="410.06,-1008 410.06,-1038.8 728.32,-1038.8 728.32,-1008 410.06,-1008"/>
<text text-anchor="start" x="417.06" y="-1020.2" font-family="Arial" font-size="14.00">cancellation_reason_id </text>
<text text-anchor="start" x="564.16" y="-1020.2" font-family="Arial" font-size="14.00" fill="#666666">[uuid]</text>
<polygon fill="none" stroke="black" points="410.06,-977.2 410.06,-1008 728.32,-1008 728.32,-977.2 410.06,-977.2"/>
<text text-anchor="start" x="417.06" y="-989.4" font-family="Arial" font-size="14.00">offer_made </text>
<text text-anchor="start" x="491.77" y="-989.4" font-family="Arial" font-size="14.00" fill="#666666">[boolean]</text>
<polygon fill="none" stroke="black" points="410.06,-946.4 410.06,-977.2 728.32,-977.2 728.32,-946.4 410.06,-946.4"/>
<text text-anchor="start" x="417.06" y="-958.6" font-family="Arial" font-size="14.00">disposition </text>
<text text-anchor="start" x="487.1" y="-958.6" font-family="Arial" font-size="14.00" fill="#666666">[call_disposition]</text>
<polygon fill="none" stroke="black" points="410.06,-915.6 410.06,-946.4 728.32,-946.4 728.32,-915.6 410.06,-915.6"/>
<text text-anchor="start" x="417.06" y="-927.8" font-family="Arial" font-size="14.00">is_primary </text>
<text text-anchor="start" x="485.51" y="-927.8" font-family="Arial" font-size="14.00" fill="#666666">[boolean]</text>
<polygon fill="none" stroke="black" points="410.06,-884.8 410.06,-915.6 728.32,-915.6 728.32,-884.8 410.06,-884.8"/>
<text text-anchor="start" x="417.06" y="-897" font-family="Arial" font-size="14.00">is_duplicate </text>
<text text-anchor="start" x="494.88" y="-897" font-family="Arial" font-size="14.00" fill="#666666">[boolean]</text>
<polygon fill="none" stroke="black" points="410.06,-854 410.06,-884.8 728.32,-884.8 728.32,-854 410.06,-854"/>
<text text-anchor="start" x="417.06" y="-866.2" font-family="Arial" font-size="14.00">chk_intake </text>
<text text-anchor="start" x="487.88" y="-866.2" font-family="Arial" font-size="14.00" fill="#666666">[boolean]</text>
<polygon fill="none" stroke="black" points="410.06,-823.2 410.06,-854 728.32,-854 728.32,-823.2 410.06,-823.2"/>
<text text-anchor="start" x="417.06" y="-835.4" font-family="Arial" font-size="14.00">chk_video </text>
<text text-anchor="start" x="483.99" y="-835.4" font-family="Arial" font-size="14.00" fill="#666666">[boolean]</text>
<polygon fill="none" stroke="black" points="410.06,-792.4 410.06,-823.2 728.32,-823.2 728.32,-792.4 410.06,-792.4"/>
<text text-anchor="start" x="417.06" y="-804.6" font-family="Arial" font-size="14.00">chk_partner </text>
<text text-anchor="start" x="494.88" y="-804.6" font-family="Arial" font-size="14.00" fill="#666666">[boolean]</text>
<polygon fill="none" stroke="black" points="410.06,-761.6 410.06,-792.4 728.32,-792.4 728.32,-761.6 410.06,-761.6"/>
<text text-anchor="start" x="417.06" y="-773.8" font-family="Arial" font-size="14.00">chk_price </text>
<text text-anchor="start" x="480.86" y="-773.8" font-family="Arial" font-size="14.00" fill="#666666">[boolean]</text>
<polygon fill="none" stroke="black" points="410.06,-730.8 410.06,-761.6 728.32,-761.6 728.32,-730.8 410.06,-730.8"/>
<text text-anchor="start" x="417.06" y="-743" font-family="Arial" font-size="14.00">chk_40day </text>
<text text-anchor="start" x="488.66" y="-743" font-family="Arial" font-size="14.00" fill="#666666">[boolean]</text>
<polygon fill="none" stroke="black" points="410.06,-700 410.06,-730.8 728.32,-730.8 728.32,-700 410.06,-700"/>
<text text-anchor="start" x="417.06" y="-712.2" font-family="Arial" font-size="14.00">chk_not_at_work </text>
<text text-anchor="start" x="526.79" y="-712.2" font-family="Arial" font-size="14.00" fill="#666666">[boolean]</text>
<polygon fill="none" stroke="black" points="410.06,-669.2 410.06,-700 728.32,-700 728.32,-669.2 410.06,-669.2"/>
<text text-anchor="start" x="417.06" y="-681.4" font-family="Arial" font-size="14.00">expected_payment_minor </text>
<text text-anchor="start" x="582.04" y="-681.4" font-family="Arial" font-size="14.00" fill="#666666">[integer]</text>
<polygon fill="none" stroke="black" points="410.06,-638.4 410.06,-669.2 728.32,-669.2 728.32,-638.4 410.06,-638.4"/>
<text text-anchor="start" x="417.06" y="-650.6" font-family="Arial" font-size="14.00">readiness_outcome </text>
<text text-anchor="start" x="543.13" y="-650.6" font-family="Arial" font-size="14.00" fill="#666666">[readiness_outcome]</text>
<polygon fill="none" stroke="black" points="410.06,-607.6 410.06,-638.4 728.32,-638.4 728.32,-607.6 410.06,-607.6"/>
<text text-anchor="start" x="417.06" y="-619.8" font-family="Arial" font-size="14.00">sub_type </text>
<text text-anchor="start" x="477.77" y="-619.8" font-family="Arial" font-size="14.00" fill="#666666">[follow_up_sub_type]</text>
<polygon fill="none" stroke="black" points="410.06,-576.8 410.06,-607.6 728.32,-607.6 728.32,-576.8 410.06,-576.8"/>
<text text-anchor="start" x="417.06" y="-589" font-family="Arial" font-size="14.00">sequence_no </text>
<text text-anchor="start" x="505.02" y="-589" font-family="Arial" font-size="14.00" fill="#666666">[integer]</text>
<polygon fill="none" stroke="black" points="410.06,-546 410.06,-576.8 728.32,-576.8 728.32,-546 410.06,-546"/>
<text text-anchor="start" x="417.06" y="-558.2" font-family="Arial" font-size="14.00">partial_payment_minor </text>
<text text-anchor="start" x="563.35" y="-558.2" font-family="Arial" font-size="14.00" fill="#666666">[integer]</text>
<polygon fill="none" stroke="black" points="410.06,-515.2 410.06,-546 728.32,-546 728.32,-515.2 410.06,-515.2"/>
<text text-anchor="start" x="417.06" y="-527.4" font-family="Arial" font-size="14.00">followup_outcome </text>
<text text-anchor="start" x="533.79" y="-527.4" font-family="Arial" font-size="14.00" fill="#666666">[follow_up_outcome]</text>
<polygon fill="none" stroke="black" points="410.06,-484.4 410.06,-515.2 728.32,-515.2 728.32,-484.4 410.06,-484.4"/>
<text text-anchor="start" x="417.06" y="-496.6" font-family="Arial" font-size="14.00">created_at </text>
<text text-anchor="start" x="487.11" y="-496.6" font-family="Arial" font-size="14.00" fill="#666666">[timestamp with time zone]</text>
<polygon fill="none" stroke="black" points="410.06,-453.6 410.06,-484.4 728.32,-484.4 728.32,-453.6 410.06,-453.6"/>
<text text-anchor="start" x="417.06" y="-465.8" font-family="Arial" font-size="14.00">updated_at </text>
<text text-anchor="start" x="491.02" y="-465.8" font-family="Arial" font-size="14.00" fill="#666666">[timestamp with time zone]</text>
<polygon fill="none" stroke="black" points="410.06,-422.8 410.06,-453.6 728.32,-453.6 728.32,-422.8 410.06,-422.8"/>
<text text-anchor="start" x="417.06" y="-435" font-family="Arial" font-size="14.00">is_demo </text>
<text text-anchor="start" x="473.86" y="-435" font-family="Arial" font-size="14.00" fill="#666666">[boolean]</text>
</g>
<!-- sales.call&#45;&gt;core.dq_reason -->
<g id="edge2" class="edge">
<title>sales.call:dq_reason_id&#45;&gt;core.dq_reason:id</title>
<path fill="none" stroke="black" d="M401.72,-1231.66C363.79,-1150.15 384.91,-417.02 410.06,-379.6 433.62,-344.54 474.3,-378.55 498.03,-343.6 522.29,-307.85 542.23,-246.4 499.03,-246.4"/>
<polygon fill="black" stroke="black" points="401.75,-1231.69 405.64,-1241.94 405.52,-1235.46 408.58,-1238.53 408.58,-1238.53 408.58,-1238.53 405.52,-1235.46 412.01,-1235.58 401.75,-1231.69"/>
<text text-anchor="start" x="416.06" y="-1249" font-family="Arial" font-size="10.00">FOREIGN KEY (dq_reason_id) REFERENCES core.dq_reason(id)</text>
</g>
</g>
</svg>
