<?xml version="1.0" encoding="UTF-8" standalone="no"?>
<!DOCTYPE svg PUBLIC "-//W3C//DTD SVG 1.1//EN"
 "http://www.w3.org/Graphics/SVG/1.1/DTD/svg11.dtd">
<!-- Generated by graphviz version 12.1.2 (20240928.0832)
 -->
<!-- Title: finance.receivable Pages: 1 -->
<svg width="1263pt" height="1126pt"
 viewBox="0.00 0.00 1263.44 1125.60" xmlns="http://www.w3.org/2000/svg" xmlns:xlink="http://www.w3.org/1999/xlink">
<g id="graph0" class="graph" transform="scale(1 1) rotate(0) translate(4 1121.6)">
<title>finance.receivable</title>
<polygon fill="white" stroke="none" points="-4,4 -4,-1121.6 1259.44,-1121.6 1259.44,4 -4,4"/>
<!-- finance.receivable -->
<g id="node1" class="node">
<title>finance.receivable</title>
<polygon fill="#efefef" stroke="none" points="358.45,-1035.8 358.45,-1071.4 628.35,-1071.4 628.35,-1035.8 358.45,-1035.8"/>
<polygon fill="none" stroke="black" points="358.45,-1035.8 358.45,-1071.4 628.35,-1071.4 628.35,-1035.8 358.45,-1035.8"/>
<text text-anchor="start" x="365.45" y="-1049.2" font-family="Arial Bold" font-size="18.00">finance.receivable</text>
<text text-anchor="start" x="496.86" y="-1049.2" font-family="Arial" font-size="14.00">    </text>
<text text-anchor="start" x="527.97" y="-1049.2" font-family="Arial" font-size="14.00" fill="#666666">[BASE TABLE]</text>
<polygon fill="none" stroke="black" points="358.45,-1005 358.45,-1035.8 628.35,-1035.8 628.35,-1005 358.45,-1005"/>
<text text-anchor="start" x="365.45" y="-1017.2" font-family="Arial" font-size="14.00">id </text>
<text text-anchor="start" x="380.24" y="-1017.2" font-family="Arial" font-size="14.00" fill="#666666">[uuid]</text>
<polygon fill="none" stroke="black" points="358.45,-974.2 358.45,-1005 628.35,-1005 628.35,-974.2 358.45,-974.2"/>
<text text-anchor="start" x="365.45" y="-986.4" font-family="Arial" font-size="14.00">payment_plan_id </text>
<text text-anchor="start" x="475.98" y="-986.4" font-family="Arial" font-size="14.00" fill="#666666">[uuid]</text>
<polygon fill="none" stroke="black" points="358.45,-943.4 358.45,-974.2 628.35,-974.2 628.35,-943.4 358.45,-943.4"/>
<text text-anchor="start" x="365.45" y="-955.6" font-family="Arial" font-size="14.00">deal_id </text>
<text text-anchor="start" x="414.49" y="-955.6" font-family="Arial" font-size="14.00" fill="#666666">[uuid]</text>
<polygon fill="none" stroke="black" points="358.45,-912.6 358.45,-943.4 628.35,-943.4 628.35,-912.6 358.45,-912.6"/>
<text text-anchor="start" x="365.45" y="-924.8" font-family="Arial" font-size="14.00">installment_no </text>
<text text-anchor="start" x="459.62" y="-924.8" font-family="Arial" font-size="14.00" fill="#666666">[integer]</text>
<polygon fill="none" stroke="black" points="358.45,-881.8 358.45,-912.6 628.35,-912.6 628.35,-881.8 358.45,-881.8"/>
<text text-anchor="start" x="365.45" y="-894" font-family="Arial" font-size="14.00">due_date </text>
<text text-anchor="start" x="427.73" y="-894" font-family="Arial" font-size="14.00" fill="#666666">[date]</text>
<polygon fill="none" stroke="black" points="358.45,-851 358.45,-881.8 628.35,-881.8 628.35,-851 358.45,-851"/>
<text text-anchor="start" x="365.45" y="-863.2" font-family="Arial" font-size="14.00">amount_minor </text>
<text text-anchor="start" x="458.83" y="-863.2" font-family="Arial" font-size="14.00" fill="#666666">[integer]</text>
<polygon fill="none" stroke="black" points="358.45,-820.2 358.45,-851 628.35,-851 628.35,-820.2 358.45,-820.2"/>
<text text-anchor="start" x="365.45" y="-832.4" font-family="Arial" font-size="14.00">status </text>
<text text-anchor="start" x="406.69" y="-832.4" font-family="Arial" font-size="14.00" fill="#666666">[receivable_status]</text>
<polygon fill="none" stroke="black" points="358.45,-789.4 358.45,-820.2 628.35,-820.2 628.35,-789.4 358.45,-789.4"/>
<text text-anchor="start" x="365.45" y="-801.6" font-family="Arial" font-size="14.00">paid_at </text>
<text text-anchor="start" x="415.27" y="-801.6" font-family="Arial" font-size="14.00" fill="#666666">[date]</text>
<polygon fill="none" stroke="black" points="358.45,-758.6 358.45,-789.4 628.35,-789.4 628.35,-758.6 358.45,-758.6"/>
<text text-anchor="start" x="365.45" y="-770.8" font-family="Arial" font-size="14.00">payment_id </text>
<text text-anchor="start" x="441.72" y="-770.8" font-family="Arial" font-size="14.00" fill="#666666">[uuid]</text>
<polygon fill="none" stroke="black" points="358.45,-727.8 358.45,-758.6 628.35,-758.6 628.35,-727.8 358.45,-727.8"/>
<text text-anchor="start" x="365.45" y="-740" font-family="Arial" font-size="14.00">monday_payment_schedule_id </text>
<text text-anchor="start" x="563.14" y="-740" font-family="Arial" font-size="14.00" fill="#666666">[text]</text>
<polygon fill="none" stroke="black" points="358.45,-697 358.45,-727.8 628.35,-727.8 628.35,-697 358.45,-697"/>
<text text-anchor="start" x="365.45" y="-709.2" font-family="Arial" font-size="14.00">created_at </text>
<text text-anchor="start" x="435.5" y="-709.2" font-family="Arial" font-size="14.00" fill="#666666">[timestamp with time zone]</text>
<polygon fill="none" stroke="black" points="358.45,-666.2 358.45,-697 628.35,-697 628.35,-666.2 358.45,-666.2"/>
<text text-anchor="start" x="365.45" y="-678.4" font-family="Arial" font-size="14.00">updated_at </text>
<text text-anchor="start" x="439.41" y="-678.4" font-family="Arial" font-size="14.00" fill="#666666">[timestamp with time zone]</text>
<polygon fill="none" stroke="black" stroke-width="3" points="356.95,-664.7 356.95,-1072.9 629.85,-1072.9 629.85,-664.7 356.95,-664.7"/>
</g>
<!-- finance.successful_payment -->
<g id="node2" class="node">
<title>finance.successful_payment</title>
<polygon fill="#efefef" stroke="none" points="110.94,-489.8 110.94,-525.4 451.85,-525.4 451.85,-489.8 110.94,-489.8"/>
<polygon fill="none" stroke="black" points="110.94,-489.8 110.94,-525.4 451.85,-525.4 451.85,-489.8 110.94,-489.8"/>
<text text-anchor="start" x="117.94" y="-503.2" font-family="Arial Bold" font-size="18.00">finance.successful_payment</text>
<text text-anchor="start" x="320.37" y="-503.2" font-family="Arial" font-size="14.00">    </text>
<text text-anchor="start" x="351.48" y="-503.2" font-family="Arial" font-size="14.00" fill="#666666">[BASE TABLE]</text>
<polygon fill="none" stroke="black" points="110.94,-459 110.94,-489.8 451.85,-489.8 451.85,-459 110.94,-459"/>
<text text-anchor="start" x="117.94" y="-471.2" font-family="Arial" font-size="14.00">id </text>
<text text-anchor="start" x="132.73" y="-471.2" font-family="Arial" font-size="14.00" fill="#666666">[uuid]</text>
<polygon fill="none" stroke="black" points="110.94,-428.2 110.94,-459 451.85,-459 451.85,-428.2 110.94,-428.2"/>
<text text-anchor="start" x="117.94" y="-440.4" font-family="Arial" font-size="14.00">deal_id </text>
<text text-anchor="start" x="166.99" y="-440.4" font-family="Arial" font-size="14.00" fill="#666666">[uuid]</text>
<polygon fill="none" stroke="black" points="110.94,-397.4 110.94,-428.2 451.85,-428.2 451.85,-397.4 110.94,-397.4"/>
<text text-anchor="start" x="117.94" y="-409.6" font-family="Arial" font-size="14.00">strategy_call_id </text>
<text text-anchor="start" x="219.11" y="-409.6" font-family="Arial" font-size="14.00" fill="#666666">[uuid]</text>
<polygon fill="none" stroke="black" points="110.94,-366.6 110.94,-397.4 451.85,-397.4 451.85,-366.6 110.94,-366.6"/>
<text text-anchor="start" x="117.94" y="-378.8" font-family="Arial" font-size="14.00">receivable_id </text>
<text text-anchor="start" x="204.33" y="-378.8" font-family="Arial" font-size="14.00" fill="#666666">[uuid]</text>
<polygon fill="none" stroke="black" points="110.94,-335.8 110.94,-366.6 451.85,-366.6 451.85,-335.8 110.94,-335.8"/>
<text text-anchor="start" x="117.94" y="-348" font-family="Arial" font-size="14.00">rep_id </text>
<text text-anchor="start" x="160.75" y="-348" font-family="Arial" font-size="14.00" fill="#666666">[uuid]</text>
<polygon fill="none" stroke="black" points="110.94,-305 110.94,-335.8 451.85,-335.8 451.85,-305 110.94,-305"/>
<text text-anchor="start" x="117.94" y="-317.2" font-family="Arial" font-size="14.00">processor </text>
<text text-anchor="start" x="183.3" y="-317.2" font-family="Arial" font-size="14.00" fill="#666666">[payment_processor]</text>
<polygon fill="none" stroke="black" points="110.94,-274.2 110.94,-305 451.85,-305 451.85,-274.2 110.94,-274.2"/>
<text text-anchor="start" x="117.94" y="-286.4" font-family="Arial" font-size="14.00">type </text>
<text text-anchor="start" x="148.3" y="-286.4" font-family="Arial" font-size="14.00" fill="#666666">[payment_type]</text>
<polygon fill="none" stroke="black" points="110.94,-243.4 110.94,-274.2 451.85,-274.2 451.85,-243.4 110.94,-243.4"/>
<text text-anchor="start" x="117.94" y="-255.6" font-family="Arial" font-size="14.00">amount_minor </text>
<text text-anchor="start" x="211.32" y="-255.6" font-family="Arial" font-size="14.00" fill="#666666">[integer]</text>
<polygon fill="none" stroke="black" points="110.94,-212.6 110.94,-243.4 451.85,-243.4 451.85,-212.6 110.94,-212.6"/>
<text text-anchor="start" x="117.94" y="-224.8" font-family="Arial" font-size="14.00">processing_fee_minor </text>
<text text-anchor="start" x="259.58" y="-224.8" font-family="Arial" font-size="14.00" fill="#666666">[integer]</text>
<polygon fill="none" stroke="black" points="110.94,-181.8 110.94,-212.6 451.85,-212.6 451.85,-181.8 110.94,-181.8"/>
<text text-anchor="start" x="117.94" y="-194" font-family="Arial" font-size="14.00">occurred_at </text>
<text text-anchor="start" x="195.76" y="-194" font-family="Arial" font-size="14.00" fill="#666666">[timestamp with time zone]</text>
<polygon fill="none" stroke="black" points="110.94,-151 110.94,-181.8 451.85,-181.8 451.85,-151 110.94,-151"/>
<text text-anchor="start" x="117.94" y="-163.2" font-family="Arial" font-size="14.00">nmi_transaction_id </text>
<text text-anchor="start" x="239.34" y="-163.2" font-family="Arial" font-size="14.00" fill="#666666">[text]</text>
<polygon fill="none" stroke="black" points="110.94,-120.2 110.94,-151 451.85,-151 451.85,-120.2 110.94,-120.2"/>
<text text-anchor="start" x="117.94" y="-132.4" font-family="Arial" font-size="14.00">stripe_charge_id </text>
<text text-anchor="start" x="225.34" y="-132.4" font-family="Arial" font-size="14.00" fill="#666666">[text]</text>
<polygon fill="none" stroke="black" points="110.94,-89.4 110.94,-120.2 451.85,-120.2 451.85,-89.4 110.94,-89.4"/>
<text text-anchor="start" x="117.94" y="-101.6" font-family="Arial" font-size="14.00">created_at </text>
<text text-anchor="start" x="187.99" y="-101.6" font-family="Arial" font-size="14.00" fill="#666666">[timestamp with time zone]</text>
<polygon fill="none" stroke="black" points="110.94,-58.6 110.94,-89.4 451.85,-89.4 451.85,-58.6 110.94,-58.6"/>
<text text-anchor="start" x="117.94" y="-70.8" font-family="Arial" font-size="14.00">updated_at </text>
<text text-anchor="start" x="191.9" y="-70.8" font-family="Arial" font-size="14.00" fill="#666666">[timestamp with time zone]</text>
</g>
<!-- finance.receivable&#45;&gt;finance.successful_payment -->
<g id="edge4" class="edge">
<title>finance.receivable:payment_id&#45;&gt;finance.successful_payment:id</title>
<path fill="none" stroke="black" d="M347.13,-773.17C292.77,-763.7 325.35,-675.59 358.45,-620 382.7,-579.29 427.53,-609.26 451.85,-568.6 473.35,-532.67 494.72,-474.4 452.85,-474.4"/>
<polygon fill="black" stroke="black" points="347.15,-773.17 356.76,-778.46 352.47,-773.6 356.79,-773.95 356.79,-773.95 356.79,-773.95 352.47,-773.6 357.48,-769.49 347.15,-773.17"/>
<text text-anchor="start" x="7" y="-784" font-family="Arial" font-size="10.00">FOREIGN KEY (payment_id) REFERENCES finance.successful_payment(id)</text>
</g>
<!-- finance.payment_plan -->
<g id="node3" class="node">
<title>finance.payment_plan</title>
<polygon fill="#efefef" stroke="none" points="556.44,-412.8 556.44,-448.4 854.36,-448.4 854.36,-412.8 556.44,-412.8"/>
<polygon fill="none" stroke="black" points="556.44,-412.8 556.44,-448.4 854.36,-448.4 854.36,-412.8 556.44,-412.8"/>
<text text-anchor="start" x="563.44" y="-426.2" font-family="Arial Bold" font-size="18.00">finance.payment_plan</text>
<text text-anchor="start" x="722.87" y="-426.2" font-family="Arial" font-size="14.00">    </text>
<text text-anchor="start" x="753.99" y="-426.2" font-family="Arial" font-size="14.00" fill="#666666">[BASE TABLE]</text>
<polygon fill="none" stroke="black" points="556.44,-382 556.44,-412.8 854.36,-412.8 854.36,-382 556.44,-382"/>
<text text-anchor="start" x="563.44" y="-394.2" font-family="Arial" font-size="14.00">id </text>
<text text-anchor="start" x="578.22" y="-394.2" font-family="Arial" font-size="14.00" fill="#666666">[uuid]</text>
<polygon fill="none" stroke="black" points="556.44,-351.2 556.44,-382 854.36,-382 854.36,-351.2 556.44,-351.2"/>
<text text-anchor="start" x="563.44" y="-363.4" font-family="Arial" font-size="14.00">deal_id </text>
<text text-anchor="start" x="612.48" y="-363.4" font-family="Arial" font-size="14.00" fill="#666666">[uuid]</text>
<polygon fill="none" stroke="black" points="556.44,-320.4 556.44,-351.2 854.36,-351.2 854.36,-320.4 556.44,-320.4"/>
<text text-anchor="start" x="563.44" y="-332.6" font-family="Arial" font-size="14.00">version </text>
<text text-anchor="start" x="612.46" y="-332.6" font-family="Arial" font-size="14.00" fill="#666666">[integer]</text>
<polygon fill="none" stroke="black" points="556.44,-289.6 556.44,-320.4 854.36,-320.4 854.36,-289.6 556.44,-289.6"/>
<text text-anchor="start" x="563.44" y="-301.8" font-family="Arial" font-size="14.00">plan_type </text>
<text text-anchor="start" x="628.04" y="-301.8" font-family="Arial" font-size="14.00" fill="#666666">[plan_type]</text>
<polygon fill="none" stroke="black" points="556.44,-258.8 556.44,-289.6 854.36,-289.6 854.36,-258.8 556.44,-258.8"/>
<text text-anchor="start" x="563.44" y="-271" font-family="Arial" font-size="14.00">total_minor </text>
<text text-anchor="start" x="636.58" y="-271" font-family="Arial" font-size="14.00" fill="#666666">[integer]</text>
<polygon fill="none" stroke="black" points="556.44,-228 556.44,-258.8 854.36,-258.8 854.36,-228 556.44,-228"/>
<text text-anchor="start" x="563.44" y="-240.2" font-family="Arial" font-size="14.00">is_current </text>
<text text-anchor="start" x="628.8" y="-240.2" font-family="Arial" font-size="14.00" fill="#666666">[boolean]</text>
<polygon fill="none" stroke="black" points="556.44,-197.2 556.44,-228 854.36,-228 854.36,-197.2 556.44,-197.2"/>
<text text-anchor="start" x="563.44" y="-209.4" font-family="Arial" font-size="14.00">superseded_at </text>
<text text-anchor="start" x="659.95" y="-209.4" font-family="Arial" font-size="14.00" fill="#666666">[timestamp with time zone]</text>
<polygon fill="none" stroke="black" points="556.44,-166.4 556.44,-197.2 854.36,-197.2 854.36,-166.4 556.44,-166.4"/>
<text text-anchor="start" x="563.44" y="-178.6" font-family="Arial" font-size="14.00">created_at </text>
<text text-anchor="start" x="633.49" y="-178.6" font-family="Arial" font-size="14.00" fill="#666666">[timestamp with time zone]</text>
<polygon fill="none" stroke="black" points="556.44,-135.6 556.44,-166.4 854.36,-166.4 854.36,-135.6 556.44,-135.6"/>
<text text-anchor="start" x="563.44" y="-147.8" font-family="Arial" font-size="14.00">updated_at </text>
<text text-anchor="start" x="637.4" y="-147.8" font-family="Arial" font-size="14.00" fill="#666666">[timestamp with time zone]</text>
</g>
<!-- finance.receivable&#45;&gt;finance.payment_plan -->
<g id="edge2" class="edge">
<title>finance.receivable:payment_plan_id&#45;&gt;finance.payment_plan:id</title>
<path fill="none" stroke="black" d="M639.54,-989.31C788.34,-980.57 669.14,-775.47 628.35,-620 611.75,-556.74 573.29,-554.8 556.44,-491.6 545.65,-451.14 513.57,-397.4 555.44,-397.4"/>
<polygon fill="black" stroke="black" points="639.68,-989.31 629.55,-985.09 634.34,-989.46 630.02,-989.58 630.02,-989.58 630.02,-989.58 634.34,-989.46 629.81,-994.09 639.68,-989.31"/>
<text text-anchor="start" x="636.35" y="-999.6" font-family="Arial" font-size="10.00">FOREIGN KEY (payment_plan_id) REFERENCES finance.payment_plan(id)</text>
</g>
<!-- sales.deal -->
<g id="node4" class="node">
<title>sales.deal</title>
<polygon fill="#efefef" stroke="none" points="958.56,-505.2 958.56,-540.8 1212.24,-540.8 1212.24,-505.2 958.56,-505.2"/>
<polygon fill="none" stroke="black" points="958.56,-505.2 958.56,-540.8 1212.24,-540.8 1212.24,-505.2 958.56,-505.2"/>
<text text-anchor="start" x="988.42" y="-518.6" font-family="Arial Bold" font-size="18.00">sales.deal</text>
<text text-anchor="start" x="1057.89" y="-518.6" font-family="Arial" font-size="14.00">    </text>
<text text-anchor="start" x="1089.01" y="-518.6" font-family="Arial" font-size="14.00" fill="#666666">[BASE TABLE]</text>
<polygon fill="none" stroke="black" points="958.56,-474.4 958.56,-505.2 1212.24,-505.2 1212.24,-474.4 958.56,-474.4"/>
<text text-anchor="start" x="965.56" y="-486.6" font-family="Arial" font-size="14.00">id </text>
<text text-anchor="start" x="980.34" y="-486.6" font-family="Arial" font-size="14.00" fill="#666666">[uuid]</text>
<polygon fill="none" stroke="black" points="958.56,-443.6 958.56,-474.4 1212.24,-474.4 1212.24,-443.6 958.56,-443.6"/>
<text text-anchor="start" x="965.56" y="-455.8" font-family="Arial" font-size="14.00">opportunity_id </text>
<text text-anchor="start" x="1057.4" y="-455.8" font-family="Arial" font-size="14.00" fill="#666666">[uuid]</text>
<polygon fill="none" stroke="black" points="958.56,-412.8 958.56,-443.6 1212.24,-443.6 1212.24,-412.8 958.56,-412.8"/>
<text text-anchor="start" x="965.56" y="-425" font-family="Arial" font-size="14.00">contact_id </text>
<text text-anchor="start" x="1033.27" y="-425" font-family="Arial" font-size="14.00" fill="#666666">[uuid]</text>
<polygon fill="none" stroke="black" points="958.56,-382 958.56,-412.8 1212.24,-412.8 1212.24,-382 958.56,-382"/>
<text text-anchor="start" x="965.56" y="-394.2" font-family="Arial" font-size="14.00">closer_rep_id </text>
<text text-anchor="start" x="1053.5" y="-394.2" font-family="Arial" font-size="14.00" fill="#666666">[uuid]</text>
<polygon fill="none" stroke="black" points="958.56,-351.2 958.56,-382 1212.24,-382 1212.24,-351.2 958.56,-351.2"/>
<text text-anchor="start" x="965.56" y="-363.4" font-family="Arial" font-size="14.00">offer_id </text>
<text text-anchor="start" x="1016.14" y="-363.4" font-family="Arial" font-size="14.00" fill="#666666">[uuid]</text>
<polygon fill="none" stroke="black" points="958.56,-320.4 958.56,-351.2 1212.24,-351.2 1212.24,-320.4 958.56,-320.4"/>
<text text-anchor="start" x="965.56" y="-332.6" font-family="Arial" font-size="14.00">total_contract_value_minor </text>
<text text-anchor="start" x="1137.54" y="-332.6" font-family="Arial" font-size="14.00" fill="#666666">[integer]</text>
<polygon fill="none" stroke="black" points="958.56,-289.6 958.56,-320.4 1212.24,-320.4 1212.24,-289.6 958.56,-289.6"/>
<text text-anchor="start" x="965.56" y="-301.8" font-family="Arial" font-size="14.00">plan_type_snapshot </text>
<text text-anchor="start" x="1094.77" y="-301.8" font-family="Arial" font-size="14.00" fill="#666666">[plan_type]</text>
<polygon fill="none" stroke="black" points="958.56,-258.8 958.56,-289.6 1212.24,-289.6 1212.24,-258.8 958.56,-258.8"/>
<text text-anchor="start" x="965.56" y="-271" font-family="Arial" font-size="14.00">discount_pct </text>
<text text-anchor="start" x="1048.05" y="-271" font-family="Arial" font-size="14.00" fill="#666666">[numeric]</text>
<polygon fill="none" stroke="black" points="958.56,-228 958.56,-258.8 1212.24,-258.8 1212.24,-228 958.56,-228"/>
<text text-anchor="start" x="965.56" y="-240.2" font-family="Arial" font-size="14.00">is_couple </text>
<text text-anchor="start" x="1028.6" y="-240.2" font-family="Arial" font-size="14.00" fill="#666666">[boolean]</text>
<polygon fill="none" stroke="black" points="958.56,-197.2 958.56,-228 1212.24,-228 1212.24,-197.2 958.56,-197.2"/>
<text text-anchor="start" x="965.56" y="-209.4" font-family="Arial" font-size="14.00">partner_contact_id </text>
<text text-anchor="start" x="1085.41" y="-209.4" font-family="Arial" font-size="14.00" fill="#666666">[uuid]</text>
<polygon fill="none" stroke="black" points="958.56,-166.4 958.56,-197.2 1212.24,-197.2 1212.24,-166.4 958.56,-166.4"/>
<text text-anchor="start" x="965.56" y="-178.6" font-family="Arial" font-size="14.00">deal_close_date </text>
<text text-anchor="start" x="1071.42" y="-178.6" font-family="Arial" font-size="14.00" fill="#666666">[date]</text>
<polygon fill="none" stroke="black" points="958.56,-135.6 958.56,-166.4 1212.24,-166.4 1212.24,-135.6 958.56,-135.6"/>
<text text-anchor="start" x="965.56" y="-147.8" font-family="Arial" font-size="14.00">status </text>
<text text-anchor="start" x="1006.8" y="-147.8" font-family="Arial" font-size="14.00" fill="#666666">[deal_status]</text>
<polygon fill="none" stroke="black" points="958.56,-104.8 958.56,-135.6 1212.24,-135.6 1212.24,-104.8 958.56,-104.8"/>
<text text-anchor="start" x="965.56" y="-117" font-family="Arial" font-size="14.00">close_id </text>
<text text-anchor="start" x="1020.81" y="-117" font-family="Arial" font-size="14.00" fill="#666666">[text]</text>
<polygon fill="none" stroke="black" points="958.56,-74 958.56,-104.8 1212.24,-104.8 1212.24,-74 958.56,-74"/>
<text text-anchor="start" x="965.56" y="-86.2" font-family="Arial" font-size="14.00">created_at </text>
<text text-anchor="start" x="1035.61" y="-86.2" font-family="Arial" font-size="14.00" fill="#666666">[timestamp with time zone]</text>
<polygon fill="none" stroke="black" points="958.56,-43.2 958.56,-74 1212.24,-74 1212.24,-43.2 958.56,-43.2"/>
<text text-anchor="start" x="965.56" y="-55.4" font-family="Arial" font-size="14.00">updated_at </text>
<text text-anchor="start" x="1039.52" y="-55.4" font-family="Arial" font-size="14.00" fill="#666666">[timestamp with time zone]</text>
</g>
<!-- finance.receivable&#45;&gt;sales.deal -->
<g id="edge3" class="edge">
<title>finance.receivable:deal_id&#45;&gt;sales.deal:id</title>
<path fill="none" stroke="black" d="M639.75,-958.63C835.13,-951.97 797.03,-755.74 906.4,-584 931.99,-543.81 909.92,-489.8 957.56,-489.8"/>
<polygon fill="black" stroke="black" points="639.68,-958.63 629.61,-954.3 634.35,-958.72 630.02,-958.79 630.02,-958.79 630.02,-958.79 634.35,-958.72 629.76,-963.29 639.68,-958.63"/>
<text text-anchor="start" x="636.35" y="-968.8" font-family="Arial" font-size="10.00">FOREIGN KEY (deal_id) REFERENCES sales.deal(id)</text>
</g>
<!-- finance.successful_payment&#45;&gt;finance.receivable -->
<g id="edge1" class="edge">
<title>finance.successful_payment:receivable_id&#45;&gt;finance.receivable:id</title>
<path fill="none" stroke="black" d="M462.87,-382.63C532.22,-391.83 492.43,-500.38 451.85,-568.6 427.63,-609.32 382.61,-579.24 358.45,-620 267.71,-773.08 179.5,-1020.4 357.45,-1020.4"/>
<polygon fill="black" stroke="black" points="463.17,-382.65 453.47,-377.53 457.84,-382.31 453.52,-382.04 453.52,-382.04 453.52,-382.04 457.84,-382.31 452.91,-386.51 463.17,-382.65"/>
<text text-anchor="start" x="300.02" y="-366" font-family="Arial" font-size="10.00">FOREIGN KEY (receivable_id) REFERENCES finance.receivable(id)</text>
</g>
</g>
</svg>
