<?xml version="1.0" encoding="UTF-8" standalone="no"?>
<!DOCTYPE svg PUBLIC "-//W3C//DTD SVG 1.1//EN"
 "http://www.w3.org/Graphics/SVG/1.1/DTD/svg11.dtd">
<!-- Generated by graphviz version 12.1.2 (20240928.0832)
 -->
<!-- Title: finance.reversal Pages: 1 -->
<svg width="882pt" height="1033pt"
 viewBox="0.00 0.00 882.40 1033.20" xmlns="http://www.w3.org/2000/svg" xmlns:xlink="http://www.w3.org/1999/xlink">
<g id="graph0" class="graph" transform="scale(1 1) rotate(0) translate(4 1029.2)">
<title>finance.reversal</title>
<polygon fill="white" stroke="none" points="-4,4 -4,-1029.2 878.4,-1029.2 878.4,4 -4,4"/>
<!-- finance.reversal -->
<g id="node1" class="node">
<title>finance.reversal</title>
<polygon fill="#efefef" stroke="none" points="258.41,-943.4 258.41,-979 515.95,-979 515.95,-943.4 258.41,-943.4"/>
<polygon fill="none" stroke="black" points="258.41,-943.4 258.41,-979 515.95,-979 515.95,-943.4 258.41,-943.4"/>
<text text-anchor="start" x="267.72" y="-956.8" font-family="Arial Bold" font-size="18.00">finance.reversal</text>
<text text-anchor="start" x="382.15" y="-956.8" font-family="Arial" font-size="14.00">    </text>
<text text-anchor="start" x="413.27" y="-956.8" font-family="Arial" font-size="14.00" fill="#666666">[BASE TABLE]</text>
<polygon fill="none" stroke="black" points="258.41,-912.6 258.41,-943.4 515.95,-943.4 515.95,-912.6 258.41,-912.6"/>
<text text-anchor="start" x="265.41" y="-924.8" font-family="Arial" font-size="14.00">id </text>
<text text-anchor="start" x="280.19" y="-924.8" font-family="Arial" font-size="14.00" fill="#666666">[uuid]</text>
<polygon fill="none" stroke="black" points="258.41,-881.8 258.41,-912.6 515.95,-912.6 515.95,-881.8 258.41,-881.8"/>
<text text-anchor="start" x="265.41" y="-894" font-family="Arial" font-size="14.00">deal_id </text>
<text text-anchor="start" x="314.45" y="-894" font-family="Arial" font-size="14.00" fill="#666666">[uuid]</text>
<polygon fill="none" stroke="black" points="258.41,-851 258.41,-881.8 515.95,-881.8 515.95,-851 258.41,-851"/>
<text text-anchor="start" x="265.41" y="-863.2" font-family="Arial" font-size="14.00">payment_id </text>
<text text-anchor="start" x="341.68" y="-863.2" font-family="Arial" font-size="14.00" fill="#666666">[uuid]</text>
<polygon fill="none" stroke="black" points="258.41,-820.2 258.41,-851 515.95,-851 515.95,-820.2 258.41,-820.2"/>
<text text-anchor="start" x="265.41" y="-832.4" font-family="Arial" font-size="14.00">type </text>
<text text-anchor="start" x="295.76" y="-832.4" font-family="Arial" font-size="14.00" fill="#666666">[reversal_type]</text>
<polygon fill="none" stroke="black" points="258.41,-789.4 258.41,-820.2 515.95,-820.2 515.95,-789.4 258.41,-789.4"/>
<text text-anchor="start" x="265.41" y="-801.6" font-family="Arial" font-size="14.00">amount_minor </text>
<text text-anchor="start" x="358.79" y="-801.6" font-family="Arial" font-size="14.00" fill="#666666">[integer]</text>
<polygon fill="none" stroke="black" points="258.41,-758.6 258.41,-789.4 515.95,-789.4 515.95,-758.6 258.41,-758.6"/>
<text text-anchor="start" x="265.41" y="-770.8" font-family="Arial" font-size="14.00">reason </text>
<text text-anchor="start" x="312.1" y="-770.8" font-family="Arial" font-size="14.00" fill="#666666">[text]</text>
<polygon fill="none" stroke="black" points="258.41,-727.8 258.41,-758.6 515.95,-758.6 515.95,-727.8 258.41,-727.8"/>
<text text-anchor="start" x="265.41" y="-740" font-family="Arial" font-size="14.00">occurred_at </text>
<text text-anchor="start" x="343.23" y="-740" font-family="Arial" font-size="14.00" fill="#666666">[timestamp with time zone]</text>
<polygon fill="none" stroke="black" points="258.41,-697 258.41,-727.8 515.95,-727.8 515.95,-697 258.41,-697"/>
<text text-anchor="start" x="265.41" y="-709.2" font-family="Arial" font-size="14.00">created_at </text>
<text text-anchor="start" x="335.46" y="-709.2" font-family="Arial" font-size="14.00" fill="#666666">[timestamp with time zone]</text>
<polygon fill="none" stroke="black" points="258.41,-666.2 258.41,-697 515.95,-697 515.95,-666.2 258.41,-666.2"/>
<text text-anchor="start" x="265.41" y="-678.4" font-family="Arial" font-size="14.00">updated_at </text>
<text text-anchor="start" x="339.37" y="-678.4" font-family="Arial" font-size="14.00" fill="#666666">[timestamp with time zone]</text>
<polygon fill="none" stroke="black" stroke-width="3" points="256.91,-664.7 256.91,-980.5 517.45,-980.5 517.45,-664.7 256.91,-664.7"/>
</g>
<!-- sales.deal -->
<g id="node2" class="node">
<title>sales.deal</title>
<polygon fill="#efefef" stroke="none" points="59.34,-505.2 59.34,-540.8 313.02,-540.8 313.02,-505.2 59.34,-505.2"/>
<polygon fill="none" stroke="black" points="59.34,-505.2 59.34,-540.8 313.02,-540.8 313.02,-505.2 59.34,-505.2"/>
<text text-anchor="start" x="89.2" y="-518.6" font-family="Arial Bold" font-size="18.00">sales.deal</text>
<text text-anchor="start" x="158.67" y="-518.6" font-family="Arial" font-size="14.00">    </text>
<text text-anchor="start" x="189.79" y="-518.6" font-family="Arial" font-size="14.00" fill="#666666">[BASE TABLE]</text>
<polygon fill="none" stroke="black" points="59.34,-474.4 59.34,-505.2 313.02,-505.2 313.02,-474.4 59.34,-474.4"/>
<text text-anchor="start" x="66.34" y="-486.6" font-family="Arial" font-size="14.00">id </text>
<text text-anchor="start" x="81.13" y="-486.6" font-family="Arial" font-size="14.00" fill="#666666">[uuid]</text>
<polygon fill="none" stroke="black" points="59.34,-443.6 59.34,-474.4 313.02,-474.4 313.02,-443.6 59.34,-443.6"/>
<text text-anchor="start" x="66.34" y="-455.8" font-family="Arial" font-size="14.00">opportunity_id </text>
<text text-anchor="start" x="158.18" y="-455.8" font-family="Arial" font-size="14.00" fill="#666666">[uuid]</text>
<polygon fill="none" stroke="black" points="59.34,-412.8 59.34,-443.6 313.02,-443.6 313.02,-412.8 59.34,-412.8"/>
<text text-anchor="start" x="66.34" y="-425" font-family="Arial" font-size="14.00">contact_id </text>
<text text-anchor="start" x="134.05" y="-425" font-family="Arial" font-size="14.00" fill="#666666">[uuid]</text>
<polygon fill="none" stroke="black" points="59.34,-382 59.34,-412.8 313.02,-412.8 313.02,-382 59.34,-382"/>
<text text-anchor="start" x="66.34" y="-394.2" font-family="Arial" font-size="14.00">closer_rep_id </text>
<text text-anchor="start" x="154.28" y="-394.2" font-family="Arial" font-size="14.00" fill="#666666">[uuid]</text>
<polygon fill="none" stroke="black" points="59.34,-351.2 59.34,-382 313.02,-382 313.02,-351.2 59.34,-351.2"/>
<text text-anchor="start" x="66.34" y="-363.4" font-family="Arial" font-size="14.00">offer_id </text>
<text text-anchor="start" x="116.93" y="-363.4" font-family="Arial" font-size="14.00" fill="#666666">[uuid]</text>
<polygon fill="none" stroke="black" points="59.34,-320.4 59.34,-351.2 313.02,-351.2 313.02,-320.4 59.34,-320.4"/>
<text text-anchor="start" x="66.34" y="-332.6" font-family="Arial" font-size="14.00">total_contract_value_minor </text>
<text text-anchor="start" x="238.32" y="-332.6" font-family="Arial" font-size="14.00" fill="#666666">[integer]</text>
<polygon fill="none" stroke="black" points="59.34,-289.6 59.34,-320.4 313.02,-320.4 313.02,-289.6 59.34,-289.6"/>
<text text-anchor="start" x="66.34" y="-301.8" font-family="Arial" font-size="14.00">plan_type_snapshot </text>
<text text-anchor="start" x="195.55" y="-301.8" font-family="Arial" font-size="14.00" fill="#666666">[plan_type]</text>
<polygon fill="none" stroke="black" points="59.34,-258.8 59.34,-289.6 313.02,-289.6 313.02,-258.8 59.34,-258.8"/>
<text text-anchor="start" x="66.34" y="-271" font-family="Arial" font-size="14.00">discount_pct </text>
<text text-anchor="start" x="148.84" y="-271" font-family="Arial" font-size="14.00" fill="#666666">[numeric]</text>
<polygon fill="none" stroke="black" points="59.34,-228 59.34,-258.8 313.02,-258.8 313.02,-228 59.34,-228"/>
<text text-anchor="start" x="66.34" y="-240.2" font-family="Arial" font-size="14.00">is_couple </text>
<text text-anchor="start" x="129.38" y="-240.2" font-family="Arial" font-size="14.00" fill="#666666">[boolean]</text>
<polygon fill="none" stroke="black" points="59.34,-197.2 59.34,-228 313.02,-228 313.02,-197.2 59.34,-197.2"/>
<text text-anchor="start" x="66.34" y="-209.4" font-family="Arial" font-size="14.00">partner_contact_id </text>
<text text-anchor="start" x="186.19" y="-209.4" font-family="Arial" font-size="14.00" fill="#666666">[uuid]</text>
<polygon fill="none" stroke="black" points="59.34,-166.4 59.34,-197.2 313.02,-197.2 313.02,-166.4 59.34,-166.4"/>
<text text-anchor="start" x="66.34" y="-178.6" font-family="Arial" font-size="14.00">deal_close_date </text>
<text text-anchor="start" x="172.2" y="-178.6" font-family="Arial" font-size="14.00" fill="#666666">[date]</text>
<polygon fill="none" stroke="black" points="59.34,-135.6 59.34,-166.4 313.02,-166.4 313.02,-135.6 59.34,-135.6"/>
<text text-anchor="start" x="66.34" y="-147.8" font-family="Arial" font-size="14.00">status </text>
<text text-anchor="start" x="107.58" y="-147.8" font-family="Arial" font-size="14.00" fill="#666666">[deal_status]</text>
<polygon fill="none" stroke="black" points="59.34,-104.8 59.34,-135.6 313.02,-135.6 313.02,-104.8 59.34,-104.8"/>
<text text-anchor="start" x="66.34" y="-117" font-family="Arial" font-size="14.00">close_id </text>
<text text-anchor="start" x="121.59" y="-117" font-family="Arial" font-size="14.00" fill="#666666">[text]</text>
<polygon fill="none" stroke="black" points="59.34,-74 59.34,-104.8 313.02,-104.8 313.02,-74 59.34,-74"/>
<text text-anchor="start" x="66.34" y="-86.2" font-family="Arial" font-size="14.00">created_at </text>
<text text-anchor="start" x="136.39" y="-86.2" font-family="Arial" font-size="14.00" fill="#666666">[timestamp with time zone]</text>
<polygon fill="none" stroke="black" points="59.34,-43.2 59.34,-74 313.02,-74 313.02,-43.2 59.34,-43.2"/>
<text text-anchor="start" x="66.34" y="-55.4" font-family="Arial" font-size="14.00">updated_at </text>
<text text-anchor="start" x="140.3" y="-55.4" font-family="Arial" font-size="14.00" fill="#666666">[timestamp with time zone]</text>
</g>
<!-- finance.reversal&#45;&gt;sales.deal -->
<g id="edge1" class="edge">
<title>finance.reversal:deal_id&#45;&gt;sales.deal:id</title>
<path fill="none" stroke="black" d="M247.06,-896.77C138.04,-887.36 201.51,-725.19 258.41,-620 272.24,-594.43 299.1,-609.52 313.02,-584 333.07,-547.24 355.89,-489.8 314.02,-489.8"/>
<polygon fill="black" stroke="black" points="247.08,-896.77 256.89,-901.68 252.41,-896.99 256.74,-897.17 256.74,-897.17 256.74,-897.17 252.41,-896.99 257.26,-892.69 247.08,-896.77"/>
<text text-anchor="start" x="7" y="-907.2" font-family="Arial" font-size="10.00">FOREIGN KEY (deal_id) REFERENCES sales.deal(id)</text>
</g>
<!-- finance.successful_payment -->
<g id="node3" class="node">
<title>finance.successful_payment</title>
<polygon fill="#efefef" stroke="none" points="417.73,-489.8 417.73,-525.4 758.64,-525.4 758.64,-489.8 417.73,-489.8"/>
<polygon fill="none" stroke="black" points="417.73,-489.8 417.73,-525.4 758.64,-525.4 758.64,-489.8 417.73,-489.8"/>
<text text-anchor="start" x="424.73" y="-503.2" font-family="Arial Bold" font-size="18.00">finance.successful_payment</text>
<text text-anchor="start" x="627.15" y="-503.2" font-family="Arial" font-size="14.00">    </text>
<text text-anchor="start" x="658.26" y="-503.2" font-family="Arial" font-size="14.00" fill="#666666">[BASE TABLE]</text>
<polygon fill="none" stroke="black" points="417.73,-459 417.73,-489.8 758.64,-489.8 758.64,-459 417.73,-459"/>
<text text-anchor="start" x="424.73" y="-471.2" font-family="Arial" font-size="14.00">id </text>
<text text-anchor="start" x="439.51" y="-471.2" font-family="Arial" font-size="14.00" fill="#666666">[uuid]</text>
<polygon fill="none" stroke="black" points="417.73,-428.2 417.73,-459 758.64,-459 758.64,-428.2 417.73,-428.2"/>
<text text-anchor="start" x="424.73" y="-440.4" font-family="Arial" font-size="14.00">deal_id </text>
<text text-anchor="start" x="473.77" y="-440.4" font-family="Arial" font-size="14.00" fill="#666666">[uuid]</text>
<polygon fill="none" stroke="black" points="417.73,-397.4 417.73,-428.2 758.64,-428.2 758.64,-397.4 417.73,-397.4"/>
<text text-anchor="start" x="424.73" y="-409.6" font-family="Arial" font-size="14.00">strategy_call_id </text>
<text text-anchor="start" x="525.89" y="-409.6" font-family="Arial" font-size="14.00" fill="#666666">[uuid]</text>
<polygon fill="none" stroke="black" points="417.73,-366.6 417.73,-397.4 758.64,-397.4 758.64,-366.6 417.73,-366.6"/>
<text text-anchor="start" x="424.73" y="-378.8" font-family="Arial" font-size="14.00">receivable_id </text>
<text text-anchor="start" x="511.11" y="-378.8" font-family="Arial" font-size="14.00" fill="#666666">[uuid]</text>
<polygon fill="none" stroke="black" points="417.73,-335.8 417.73,-366.6 758.64,-366.6 758.64,-335.8 417.73,-335.8"/>
<text text-anchor="start" x="424.73" y="-348" font-family="Arial" font-size="14.00">rep_id </text>
<text text-anchor="start" x="467.53" y="-348" font-family="Arial" font-size="14.00" fill="#666666">[uuid]</text>
<polygon fill="none" stroke="black" points="417.73,-305 417.73,-335.8 758.64,-335.8 758.64,-305 417.73,-305"/>
<text text-anchor="start" x="424.73" y="-317.2" font-family="Arial" font-size="14.00">processor </text>
<text text-anchor="start" x="490.08" y="-317.2" font-family="Arial" font-size="14.00" fill="#666666">[payment_processor]</text>
<polygon fill="none" stroke="black" points="417.73,-274.2 417.73,-305 758.64,-305 758.64,-274.2 417.73,-274.2"/>
<text text-anchor="start" x="424.73" y="-286.4" font-family="Arial" font-size="14.00">type </text>
<text text-anchor="start" x="455.08" y="-286.4" font-family="Arial" font-size="14.00" fill="#666666">[payment_type]</text>
<polygon fill="none" stroke="black" points="417.73,-243.4 417.73,-274.2 758.64,-274.2 758.64,-243.4 417.73,-243.4"/>
<text text-anchor="start" x="424.73" y="-255.6" font-family="Arial" font-size="14.00">amount_minor </text>
<text text-anchor="start" x="518.1" y="-255.6" font-family="Arial" font-size="14.00" fill="#666666">[integer]</text>
<polygon fill="none" stroke="black" points="417.73,-212.6 417.73,-243.4 758.64,-243.4 758.64,-212.6 417.73,-212.6"/>
<text text-anchor="start" x="424.73" y="-224.8" font-family="Arial" font-size="14.00">processing_fee_minor </text>
<text text-anchor="start" x="566.36" y="-224.8" font-family="Arial" font-size="14.00" fill="#666666">[integer]</text>
<polygon fill="none" stroke="black" points="417.73,-181.8 417.73,-212.6 758.64,-212.6 758.64,-181.8 417.73,-181.8"/>
<text text-anchor="start" x="424.73" y="-194" font-family="Arial" font-size="14.00">occurred_at </text>
<text text-anchor="start" x="502.55" y="-194" font-family="Arial" font-size="14.00" fill="#666666">[timestamp with time zone]</text>
<polygon fill="none" stroke="black" points="417.73,-151 417.73,-181.8 758.64,-181.8 758.64,-151 417.73,-151"/>
<text text-anchor="start" x="424.73" y="-163.2" font-family="Arial" font-size="14.00">nmi_transaction_id </text>
<text text-anchor="start" x="546.12" y="-163.2" font-family="Arial" font-size="14.00" fill="#666666">[text]</text>
<polygon fill="none" stroke="black" points="417.73,-120.2 417.73,-151 758.64,-151 758.64,-120.2 417.73,-120.2"/>
<text text-anchor="start" x="424.73" y="-132.4" font-family="Arial" font-size="14.00">stripe_charge_id </text>
<text text-anchor="start" x="532.12" y="-132.4" font-family="Arial" font-size="14.00" fill="#666666">[text]</text>
<polygon fill="none" stroke="black" points="417.73,-89.4 417.73,-120.2 758.64,-120.2 758.64,-89.4 417.73,-89.4"/>
<text text-anchor="start" x="424.73" y="-101.6" font-family="Arial" font-size="14.00">created_at </text>
<text text-anchor="start" x="494.77" y="-101.6" font-family="Arial" font-size="14.00" fill="#666666">[timestamp with time zone]</text>
<polygon fill="none" stroke="black" points="417.73,-58.6 417.73,-89.4 758.64,-89.4 758.64,-58.6 417.73,-58.6"/>
<text text-anchor="start" x="424.73" y="-70.8" font-family="Arial" font-size="14.00">updated_at </text>
<text text-anchor="start" x="498.68" y="-70.8" font-family="Arial" font-size="14.00" fill="#666666">[timestamp with time zone]</text>
</g>
<!-- finance.reversal&#45;&gt;finance.successful_payment -->
<g id="edge2" class="edge">
<title>finance.reversal:payment_id&#45;&gt;finance.successful_payment:id</title>
<path fill="none" stroke="black" d="M527.33,-865.9C622.9,-856.32 570.96,-710.46 515.95,-620 490.35,-577.9 443.46,-610.61 417.73,-568.6 395.85,-532.9 374.86,-474.4 416.73,-474.4"/>
<polygon fill="black" stroke="black" points="527.27,-865.9 517.07,-861.89 521.95,-866.16 517.62,-866.37 517.62,-866.37 517.62,-866.37 521.95,-866.16 517.5,-870.88 527.27,-865.9"/>
<text text-anchor="start" x="523.95" y="-876.4" font-family="Arial" font-size="10.00">FOREIGN KEY (payment_id) REFERENCES finance.successful_payment(id)</text>
</g>
</g>
</svg>
