<?xml version="1.0" encoding="UTF-8" standalone="no"?>
<!DOCTYPE svg PUBLIC "-//W3C//DTD SVG 1.1//EN"
 "http://www.w3.org/Graphics/SVG/1.1/DTD/svg11.dtd">
<!-- Generated by graphviz version 12.1.2 (20240928.0832)
 -->
<!-- Title: finance.payment_plan Pages: 1 -->
<svg width="693pt" height="1561pt"
 viewBox="0.00 0.00 693.25 1560.80" xmlns="http://www.w3.org/2000/svg" xmlns:xlink="http://www.w3.org/1999/xlink">
<g id="graph0" class="graph" transform="scale(1 1) rotate(0) translate(4 1556.8)">
<title>finance.payment_plan</title>
<polygon fill="white" stroke="none" points="-4,4 -4,-1556.8 689.25,-1556.8 689.25,4 -4,4"/>
<!-- finance.payment_plan -->
<g id="node1" class="node">
<title>finance.payment_plan</title>
<polygon fill="#efefef" stroke="none" points="46.2,-943.4 46.2,-979 344.12,-979 344.12,-943.4 46.2,-943.4"/>
<polygon fill="none" stroke="black" points="46.2,-943.4 46.2,-979 344.12,-979 344.12,-943.4 46.2,-943.4"/>
<text text-anchor="start" x="53.2" y="-956.8" font-family="Arial Bold" font-size="18.00">finance.payment_plan</text>
<text text-anchor="start" x="212.63" y="-956.8" font-family="Arial" font-size="14.00">    </text>
<text text-anchor="start" x="243.75" y="-956.8" font-family="Arial" font-size="14.00" fill="#666666">[BASE TABLE]</text>
<polygon fill="none" stroke="black" points="46.2,-912.6 46.2,-943.4 344.12,-943.4 344.12,-912.6 46.2,-912.6"/>
<text text-anchor="start" x="53.2" y="-924.8" font-family="Arial" font-size="14.00">id </text>
<text text-anchor="start" x="67.99" y="-924.8" font-family="Arial" font-size="14.00" fill="#666666">[uuid]</text>
<polygon fill="none" stroke="black" points="46.2,-881.8 46.2,-912.6 344.12,-912.6 344.12,-881.8 46.2,-881.8"/>
<text text-anchor="start" x="53.2" y="-894" font-family="Arial" font-size="14.00">deal_id </text>
<text text-anchor="start" x="102.24" y="-894" font-family="Arial" font-size="14.00" fill="#666666">[uuid]</text>
<polygon fill="none" stroke="black" points="46.2,-851 46.2,-881.8 344.12,-881.8 344.12,-851 46.2,-851"/>
<text text-anchor="start" x="53.2" y="-863.2" font-family="Arial" font-size="14.00">version </text>
<text text-anchor="start" x="102.22" y="-863.2" font-family="Arial" font-size="14.00" fill="#666666">[integer]</text>
<polygon fill="none" stroke="black" points="46.2,-820.2 46.2,-851 344.12,-851 344.12,-820.2 46.2,-820.2"/>
<text text-anchor="start" x="53.2" y="-832.4" font-family="Arial" font-size="14.00">plan_type </text>
<text text-anchor="start" x="117.81" y="-832.4" font-family="Arial" font-size="14.00" fill="#666666">[plan_type]</text>
<polygon fill="none" stroke="black" points="46.2,-789.4 46.2,-820.2 344.12,-820.2 344.12,-789.4 46.2,-789.4"/>
<text text-anchor="start" x="53.2" y="-801.6" font-family="Arial" font-size="14.00">total_minor </text>
<text text-anchor="start" x="126.34" y="-801.6" font-family="Arial" font-size="14.00" fill="#666666">[integer]</text>
<polygon fill="none" stroke="black" points="46.2,-758.6 46.2,-789.4 344.12,-789.4 344.12,-758.6 46.2,-758.6"/>
<text text-anchor="start" x="53.2" y="-770.8" font-family="Arial" font-size="14.00">is_current </text>
<text text-anchor="start" x="118.56" y="-770.8" font-family="Arial" font-size="14.00" fill="#666666">[boolean]</text>
<polygon fill="none" stroke="black" points="46.2,-727.8 46.2,-758.6 344.12,-758.6 344.12,-727.8 46.2,-727.8"/>
<text text-anchor="start" x="53.2" y="-740" font-family="Arial" font-size="14.00">superseded_at </text>
<text text-anchor="start" x="149.72" y="-740" font-family="Arial" font-size="14.00" fill="#666666">[timestamp with time zone]</text>
<polygon fill="none" stroke="black" points="46.2,-697 46.2,-727.8 344.12,-727.8 344.12,-697 46.2,-697"/>
<text text-anchor="start" x="53.2" y="-709.2" font-family="Arial" font-size="14.00">created_at </text>
<text text-anchor="start" x="123.25" y="-709.2" font-family="Arial" font-size="14.00" fill="#666666">[timestamp with time zone]</text>
<polygon fill="none" stroke="black" points="46.2,-666.2 46.2,-697 344.12,-697 344.12,-666.2 46.2,-666.2"/>
<text text-anchor="start" x="53.2" y="-678.4" font-family="Arial" font-size="14.00">updated_at </text>
<text text-anchor="start" x="127.16" y="-678.4" font-family="Arial" font-size="14.00" fill="#666666">[timestamp with time zone]</text>
<polygon fill="none" stroke="black" stroke-width="3" points="44.7,-664.7 44.7,-980.5 345.62,-980.5 345.62,-664.7 44.7,-664.7"/>
</g>
<!-- sales.deal -->
<g id="node3" class="node">
<title>sales.deal</title>
<polygon fill="#efefef" stroke="none" points="68.32,-505.2 68.32,-540.8 322,-540.8 322,-505.2 68.32,-505.2"/>
<polygon fill="none" stroke="black" points="68.32,-505.2 68.32,-540.8 322,-540.8 322,-505.2 68.32,-505.2"/>
<text text-anchor="start" x="98.18" y="-518.6" font-family="Arial Bold" font-size="18.00">sales.deal</text>
<text text-anchor="start" x="167.65" y="-518.6" font-family="Arial" font-size="14.00">    </text>
<text text-anchor="start" x="198.77" y="-518.6" font-family="Arial" font-size="14.00" fill="#666666">[BASE TABLE]</text>
<polygon fill="none" stroke="black" points="68.32,-474.4 68.32,-505.2 322,-505.2 322,-474.4 68.32,-474.4"/>
<text text-anchor="start" x="75.32" y="-486.6" font-family="Arial" font-size="14.00">id </text>
<text text-anchor="start" x="90.11" y="-486.6" font-family="Arial" font-size="14.00" fill="#666666">[uuid]</text>
<polygon fill="none" stroke="black" points="68.32,-443.6 68.32,-474.4 322,-474.4 322,-443.6 68.32,-443.6"/>
<text text-anchor="start" x="75.32" y="-455.8" font-family="Arial" font-size="14.00">opportunity_id </text>
<text text-anchor="start" x="167.16" y="-455.8" font-family="Arial" font-size="14.00" fill="#666666">[uuid]</text>
<polygon fill="none" stroke="black" points="68.32,-412.8 68.32,-443.6 322,-443.6 322,-412.8 68.32,-412.8"/>
<text text-anchor="start" x="75.32" y="-425" font-family="Arial" font-size="14.00">contact_id </text>
<text text-anchor="start" x="143.03" y="-425" font-family="Arial" font-size="14.00" fill="#666666">[uuid]</text>
<polygon fill="none" stroke="black" points="68.32,-382 68.32,-412.8 322,-412.8 322,-382 68.32,-382"/>
<text text-anchor="start" x="75.32" y="-394.2" font-family="Arial" font-size="14.00">closer_rep_id </text>
<text text-anchor="start" x="163.26" y="-394.2" font-family="Arial" font-size="14.00" fill="#666666">[uuid]</text>
<polygon fill="none" stroke="black" points="68.32,-351.2 68.32,-382 322,-382 322,-351.2 68.32,-351.2"/>
<text text-anchor="start" x="75.32" y="-363.4" font-family="Arial" font-size="14.00">offer_id </text>
<text text-anchor="start" x="125.91" y="-363.4" font-family="Arial" font-size="14.00" fill="#666666">[uuid]</text>
<polygon fill="none" stroke="black" points="68.32,-320.4 68.32,-351.2 322,-351.2 322,-320.4 68.32,-320.4"/>
<text text-anchor="start" x="75.32" y="-332.6" font-family="Arial" font-size="14.00">total_contract_value_minor </text>
<text text-anchor="start" x="247.31" y="-332.6" font-family="Arial" font-size="14.00" fill="#666666">[integer]</text>
<polygon fill="none" stroke="black" points="68.32,-289.6 68.32,-320.4 322,-320.4 322,-289.6 68.32,-289.6"/>
<text text-anchor="start" x="75.32" y="-301.8" font-family="Arial" font-size="14.00">plan_type_snapshot </text>
<text text-anchor="start" x="204.53" y="-301.8" font-family="Arial" font-size="14.00" fill="#666666">[plan_type]</text>
<polygon fill="none" stroke="black" points="68.32,-258.8 68.32,-289.6 322,-289.6 322,-258.8 68.32,-258.8"/>
<text text-anchor="start" x="75.32" y="-271" font-family="Arial" font-size="14.00">discount_pct </text>
<text text-anchor="start" x="157.82" y="-271" font-family="Arial" font-size="14.00" fill="#666666">[numeric]</text>
<polygon fill="none" stroke="black" points="68.32,-228 68.32,-258.8 322,-258.8 322,-228 68.32,-228"/>
<text text-anchor="start" x="75.32" y="-240.2" font-family="Arial" font-size="14.00">is_couple </text>
<text text-anchor="start" x="138.36" y="-240.2" font-family="Arial" font-size="14.00" fill="#666666">[boolean]</text>
<polygon fill="none" stroke="black" points="68.32,-197.2 68.32,-228 322,-228 322,-197.2 68.32,-197.2"/>
<text text-anchor="start" x="75.32" y="-209.4" font-family="Arial" font-size="14.00">partner_contact_id </text>
<text text-anchor="start" x="195.18" y="-209.4" font-family="Arial" font-size="14.00" fill="#666666">[uuid]</text>
<polygon fill="none" stroke="black" points="68.32,-166.4 68.32,-197.2 322,-197.2 322,-166.4 68.32,-166.4"/>
<text text-anchor="start" x="75.32" y="-178.6" font-family="Arial" font-size="14.00">deal_close_date </text>
<text text-anchor="start" x="181.18" y="-178.6" font-family="Arial" font-size="14.00" fill="#666666">[date]</text>
<polygon fill="none" stroke="black" points="68.32,-135.6 68.32,-166.4 322,-166.4 322,-135.6 68.32,-135.6"/>
<text text-anchor="start" x="75.32" y="-147.8" font-family="Arial" font-size="14.00">status </text>
<text text-anchor="start" x="116.56" y="-147.8" font-family="Arial" font-size="14.00" fill="#666666">[deal_status]</text>
<polygon fill="none" stroke="black" points="68.32,-104.8 68.32,-135.6 322,-135.6 322,-104.8 68.32,-104.8"/>
<text text-anchor="start" x="75.32" y="-117" font-family="Arial" font-size="14.00">close_id </text>
<text text-anchor="start" x="130.58" y="-117" font-family="Arial" font-size="14.00" fill="#666666">[text]</text>
<polygon fill="none" stroke="black" points="68.32,-74 68.32,-104.8 322,-104.8 322,-74 68.32,-74"/>
<text text-anchor="start" x="75.32" y="-86.2" font-family="Arial" font-size="14.00">created_at </text>
<text text-anchor="start" x="145.37" y="-86.2" font-family="Arial" font-size="14.00" fill="#666666">[timestamp with time zone]</text>
<polygon fill="none" stroke="black" points="68.32,-43.2 68.32,-74 322,-74 322,-43.2 68.32,-43.2"/>
<text text-anchor="start" x="75.32" y="-55.4" font-family="Arial" font-size="14.00">updated_at </text>
<text text-anchor="start" x="149.28" y="-55.4" font-family="Arial" font-size="14.00" fill="#666666">[timestamp with time zone]</text>
</g>
<!-- finance.payment_plan&#45;&gt;sales.deal -->
<g id="edge2" class="edge">
<title>finance.payment_plan:deal_id&#45;&gt;sales.deal:id</title>
<path fill="none" stroke="black" d="M355.23,-895.38C433.96,-865.99 410.13,-489.8 323,-489.8"/>
<polygon fill="black" stroke="black" points="355.29,-895.37 344.66,-892.71 350.04,-896.32 345.78,-897.08 345.78,-897.08 345.78,-897.08 350.04,-896.32 346.25,-901.57 355.29,-895.37"/>
<text text-anchor="start" x="352.12" y="-907.2" font-family="Arial" font-size="10.00">FOREIGN KEY (deal_id) REFERENCES sales.deal(id)</text>
</g>
<!-- finance.receivable -->
<g id="node2" class="node">
<title>finance.receivable</title>
<polygon fill="#efefef" stroke="none" points="60.21,-1474 60.21,-1509.6 330.11,-1509.6 330.11,-1474 60.21,-1474"/>
<polygon fill="none" stroke="black" points="60.21,-1474 60.21,-1509.6 330.11,-1509.6 330.11,-1474 60.21,-1474"/>
<text text-anchor="start" x="67.21" y="-1487.4" font-family="Arial Bold" font-size="18.00">finance.receivable</text>
<text text-anchor="start" x="198.62" y="-1487.4" font-family="Arial" font-size="14.00">    </text>
<text text-anchor="start" x="229.74" y="-1487.4" font-family="Arial" font-size="14.00" fill="#666666">[BASE TABLE]</text>
<polygon fill="none" stroke="black" points="60.21,-1443.2 60.21,-1474 330.11,-1474 330.11,-1443.2 60.21,-1443.2"/>
<text text-anchor="start" x="67.21" y="-1455.4" font-family="Arial" font-size="14.00">id </text>
<text text-anchor="start" x="82" y="-1455.4" font-family="Arial" font-size="14.00" fill="#666666">[uuid]</text>
<polygon fill="none" stroke="black" points="60.21,-1412.4 60.21,-1443.2 330.11,-1443.2 330.11,-1412.4 60.21,-1412.4"/>
<text text-anchor="start" x="67.21" y="-1424.6" font-family="Arial" font-size="14.00">payment_plan_id </text>
<text text-anchor="start" x="177.74" y="-1424.6" font-family="Arial" font-size="14.00" fill="#666666">[uuid]</text>
<polygon fill="none" stroke="black" points="60.21,-1381.6 60.21,-1412.4 330.11,-1412.4 330.11,-1381.6 60.21,-1381.6"/>
<text text-anchor="start" x="67.21" y="-1393.8" font-family="Arial" font-size="14.00">deal_id </text>
<text text-anchor="start" x="116.26" y="-1393.8" font-family="Arial" font-size="14.00" fill="#666666">[uuid]</text>
<polygon fill="none" stroke="black" points="60.21,-1350.8 60.21,-1381.6 330.11,-1381.6 330.11,-1350.8 60.21,-1350.8"/>
<text text-anchor="start" x="67.21" y="-1363" font-family="Arial" font-size="14.00">installment_no </text>
<text text-anchor="start" x="161.38" y="-1363" font-family="Arial" font-size="14.00" fill="#666666">[integer]</text>
<polygon fill="none" stroke="black" points="60.21,-1320 60.21,-1350.8 330.11,-1350.8 330.11,-1320 60.21,-1320"/>
<text text-anchor="start" x="67.21" y="-1332.2" font-family="Arial" font-size="14.00">due_date </text>
<text text-anchor="start" x="129.5" y="-1332.2" font-family="Arial" font-size="14.00" fill="#666666">[date]</text>
<polygon fill="none" stroke="black" points="60.21,-1289.2 60.21,-1320 330.11,-1320 330.11,-1289.2 60.21,-1289.2"/>
<text text-anchor="start" x="67.21" y="-1301.4" font-family="Arial" font-size="14.00">amount_minor </text>
<text text-anchor="start" x="160.59" y="-1301.4" font-family="Arial" font-size="14.00" fill="#666666">[integer]</text>
<polygon fill="none" stroke="black" points="60.21,-1258.4 60.21,-1289.2 330.11,-1289.2 330.11,-1258.4 60.21,-1258.4"/>
<text text-anchor="start" x="67.21" y="-1270.6" font-family="Arial" font-size="14.00">status </text>
<text text-anchor="start" x="108.46" y="-1270.6" font-family="Arial" font-size="14.00" fill="#666666">[receivable_status]</text>
<polygon fill="none" stroke="black" points="60.21,-1227.6 60.21,-1258.4 330.11,-1258.4 330.11,-1227.6 60.21,-1227.6"/>
<text text-anchor="start" x="67.21" y="-1239.8" font-family="Arial" font-size="14.00">paid_at </text>
<text text-anchor="start" x="117.03" y="-1239.8" font-family="Arial" font-size="14.00" fill="#666666">[date]</text>
<polygon fill="none" stroke="black" points="60.21,-1196.8 60.21,-1227.6 330.11,-1227.6 330.11,-1196.8 60.21,-1196.8"/>
<text text-anchor="start" x="67.21" y="-1209" font-family="Arial" font-size="14.00">payment_id </text>
<text text-anchor="start" x="143.48" y="-1209" font-family="Arial" font-size="14.00" fill="#666666">[uuid]</text>
<polygon fill="none" stroke="black" points="60.21,-1166 60.21,-1196.8 330.11,-1196.8 330.11,-1166 60.21,-1166"/>
<text text-anchor="start" x="67.21" y="-1178.2" font-family="Arial" font-size="14.00">monday_payment_schedule_id </text>
<text text-anchor="start" x="264.9" y="-1178.2" font-family="Arial" font-size="14.00" fill="#666666">[text]</text>
<polygon fill="none" stroke="black" points="60.21,-1135.2 60.21,-1166 330.11,-1166 330.11,-1135.2 60.21,-1135.2"/>
<text text-anchor="start" x="67.21" y="-1147.4" font-family="Arial" font-size="14.00">created_at </text>
<text text-anchor="start" x="137.26" y="-1147.4" font-family="Arial" font-size="14.00" fill="#666666">[timestamp with time zone]</text>
<polygon fill="none" stroke="black" points="60.21,-1104.4 60.21,-1135.2 330.11,-1135.2 330.11,-1104.4 60.21,-1104.4"/>
<text text-anchor="start" x="67.21" y="-1116.6" font-family="Arial" font-size="14.00">updated_at </text>
<text text-anchor="start" x="141.17" y="-1116.6" font-family="Arial" font-size="14.00" fill="#666666">[timestamp with time zone]</text>
</g>
<!-- finance.receivable&#45;&gt;finance.payment_plan -->
<g id="edge1" class="edge">
<title>finance.receivable:payment_plan_id&#45;&gt;finance.payment_plan:id</title>
<path fill="none" stroke="black" d="M341.24,-1426.37C442.97,-1397.05 452.76,-928 345.12,-928"/>
<polygon fill="black" stroke="black" points="341.34,-1426.35 330.81,-1423.3 336.06,-1427.1 331.77,-1427.71 331.77,-1427.71 331.77,-1427.71 336.06,-1427.1 332.07,-1432.21 341.34,-1426.35"/>
<text text-anchor="start" x="338.11" y="-1437.8" font-family="Arial" font-size="10.00">FOREIGN KEY (payment_plan_id) REFERENCES finance.payment_plan(id)</text>
</g>
</g>
</svg>
