<?xml version="1.0" encoding="UTF-8" standalone="no"?>
<!DOCTYPE svg PUBLIC "-//W3C//DTD SVG 1.1//EN"
 "http://www.w3.org/Graphics/SVG/1.1/DTD/svg11.dtd">
<!-- Generated by graphviz version 12.1.2 (20240928.0832)
 -->
<!-- Title: marketing.ad_spend Pages: 1 -->
<svg width="384pt" height="721pt"
 viewBox="0.00 0.00 384.35 721.20" xmlns="http://www.w3.org/2000/svg" xmlns:xlink="http://www.w3.org/1999/xlink">
<g id="graph0" class="graph" transform="scale(1 1) rotate(0) translate(4 717.2)">
<title>marketing.ad_spend</title>
<polygon fill="white" stroke="none" points="-4,4 -4,-717.2 380.35,-717.2 380.35,4 -4,4"/>
<!-- marketing.ad_spend -->
<g id="node1" class="node">
<title>marketing.ad_spend</title>
<polygon fill="#efefef" stroke="none" points="46.2,-631.4 46.2,-667 330.15,-667 330.15,-631.4 46.2,-631.4"/>
<polygon fill="none" stroke="black" points="46.2,-631.4 46.2,-667 330.15,-667 330.15,-631.4 46.2,-631.4"/>
<text text-anchor="start" x="53.2" y="-644.8" font-family="Arial Bold" font-size="18.00">marketing.ad_spend</text>
<text text-anchor="start" x="198.66" y="-644.8" font-family="Arial" font-size="14.00">    </text>
<text text-anchor="start" x="229.78" y="-644.8" font-family="Arial" font-size="14.00" fill="#666666">[BASE TABLE]</text>
<polygon fill="none" stroke="black" points="46.2,-600.6 46.2,-631.4 330.15,-631.4 330.15,-600.6 46.2,-600.6"/>
<text text-anchor="start" x="53.2" y="-612.8" font-family="Arial" font-size="14.00">id </text>
<text text-anchor="start" x="67.99" y="-612.8" font-family="Arial" font-size="14.00" fill="#666666">[uuid]</text>
<polygon fill="none" stroke="black" points="46.2,-569.8 46.2,-600.6 330.15,-600.6 330.15,-569.8 46.2,-569.8"/>
<text text-anchor="start" x="53.2" y="-582" font-family="Arial" font-size="14.00">date </text>
<text text-anchor="start" x="84.34" y="-582" font-family="Arial" font-size="14.00" fill="#666666">[date]</text>
<polygon fill="none" stroke="black" points="46.2,-539 46.2,-569.8 330.15,-569.8 330.15,-539 46.2,-539"/>
<text text-anchor="start" x="53.2" y="-551.2" font-family="Arial" font-size="14.00">campaign_id </text>
<text text-anchor="start" x="136.48" y="-551.2" font-family="Arial" font-size="14.00" fill="#666666">[text]</text>
<polygon fill="none" stroke="black" points="46.2,-508.2 46.2,-539 330.15,-539 330.15,-508.2 46.2,-508.2"/>
<text text-anchor="start" x="53.2" y="-520.4" font-family="Arial" font-size="14.00">campaign_name </text>
<text text-anchor="start" x="160.6" y="-520.4" font-family="Arial" font-size="14.00" fill="#666666">[text]</text>
<polygon fill="none" stroke="black" points="46.2,-477.4 46.2,-508.2 330.15,-508.2 330.15,-477.4 46.2,-477.4"/>
<text text-anchor="start" x="53.2" y="-489.6" font-family="Arial" font-size="14.00">adset_id </text>
<text text-anchor="start" x="110.02" y="-489.6" font-family="Arial" font-size="14.00" fill="#666666">[text]</text>
<polygon fill="none" stroke="black" points="46.2,-446.6 46.2,-477.4 330.15,-477.4 330.15,-446.6 46.2,-446.6"/>
<text text-anchor="start" x="53.2" y="-458.8" font-family="Arial" font-size="14.00">adset_name </text>
<text text-anchor="start" x="134.14" y="-458.8" font-family="Arial" font-size="14.00" fill="#666666">[text]</text>
<polygon fill="none" stroke="black" points="46.2,-415.8 46.2,-446.6 330.15,-446.6 330.15,-415.8 46.2,-415.8"/>
<text text-anchor="start" x="53.2" y="-428" font-family="Arial" font-size="14.00">ad_id </text>
<text text-anchor="start" x="91.34" y="-428" font-family="Arial" font-size="14.00" fill="#666666">[text]</text>
<polygon fill="none" stroke="black" points="46.2,-385 46.2,-415.8 330.15,-415.8 330.15,-385 46.2,-385"/>
<text text-anchor="start" x="53.2" y="-397.2" font-family="Arial" font-size="14.00">ad_name </text>
<text text-anchor="start" x="115.47" y="-397.2" font-family="Arial" font-size="14.00" fill="#666666">[text]</text>
<polygon fill="none" stroke="black" points="46.2,-354.2 46.2,-385 330.15,-385 330.15,-354.2 46.2,-354.2"/>
<text text-anchor="start" x="53.2" y="-366.4" font-family="Arial" font-size="14.00">spend_minor </text>
<text text-anchor="start" x="138.03" y="-366.4" font-family="Arial" font-size="14.00" fill="#666666">[integer]</text>
<polygon fill="none" stroke="black" points="46.2,-323.4 46.2,-354.2 330.15,-354.2 330.15,-323.4 46.2,-323.4"/>
<text text-anchor="start" x="53.2" y="-335.6" font-family="Arial" font-size="14.00">impressions </text>
<text text-anchor="start" x="131.78" y="-335.6" font-family="Arial" font-size="14.00" fill="#666666">[integer]</text>
<polygon fill="none" stroke="black" points="46.2,-292.6 46.2,-323.4 330.15,-323.4 330.15,-292.6 46.2,-292.6"/>
<text text-anchor="start" x="53.2" y="-304.8" font-family="Arial" font-size="14.00">reach </text>
<text text-anchor="start" x="92.11" y="-304.8" font-family="Arial" font-size="14.00" fill="#666666">[integer]</text>
<polygon fill="none" stroke="black" points="46.2,-261.8 46.2,-292.6 330.15,-292.6 330.15,-261.8 46.2,-261.8"/>
<text text-anchor="start" x="53.2" y="-274" font-family="Arial" font-size="14.00">clicks </text>
<text text-anchor="start" x="91.31" y="-274" font-family="Arial" font-size="14.00" fill="#666666">[integer]</text>
<polygon fill="none" stroke="black" points="46.2,-231 46.2,-261.8 330.15,-261.8 330.15,-231 46.2,-231"/>
<text text-anchor="start" x="53.2" y="-243.2" font-family="Arial" font-size="14.00">ctr </text>
<text text-anchor="start" x="72.64" y="-243.2" font-family="Arial" font-size="14.00" fill="#666666">[numeric]</text>
<polygon fill="none" stroke="black" points="46.2,-200.2 46.2,-231 330.15,-231 330.15,-200.2 46.2,-200.2"/>
<text text-anchor="start" x="53.2" y="-212.4" font-family="Arial" font-size="14.00">cpm_minor </text>
<text text-anchor="start" x="126.33" y="-212.4" font-family="Arial" font-size="14.00" fill="#666666">[integer]</text>
<polygon fill="none" stroke="black" points="46.2,-169.4 46.2,-200.2 330.15,-200.2 330.15,-169.4 46.2,-169.4"/>
<text text-anchor="start" x="53.2" y="-181.6" font-family="Arial" font-size="14.00">cpc_minor </text>
<text text-anchor="start" x="121.67" y="-181.6" font-family="Arial" font-size="14.00" fill="#666666">[integer]</text>
<polygon fill="none" stroke="black" points="46.2,-138.6 46.2,-169.4 330.15,-169.4 330.15,-138.6 46.2,-138.6"/>
<text text-anchor="start" x="53.2" y="-150.8" font-family="Arial" font-size="14.00">leads </text>
<text text-anchor="start" x="90.56" y="-150.8" font-family="Arial" font-size="14.00" fill="#666666">[integer]</text>
<polygon fill="none" stroke="black" points="46.2,-107.8 46.2,-138.6 330.15,-138.6 330.15,-107.8 46.2,-107.8"/>
<text text-anchor="start" x="53.2" y="-120" font-family="Arial" font-size="14.00">pulled_at </text>
<text text-anchor="start" x="113.92" y="-120" font-family="Arial" font-size="14.00" fill="#666666">[timestamp with time zone]</text>
<polygon fill="none" stroke="black" points="46.2,-77 46.2,-107.8 330.15,-107.8 330.15,-77 46.2,-77"/>
<text text-anchor="start" x="53.2" y="-89.2" font-family="Arial" font-size="14.00">created_at </text>
<text text-anchor="start" x="123.25" y="-89.2" font-family="Arial" font-size="14.00" fill="#666666">[timestamp with time zone]</text>
<polygon fill="none" stroke="black" points="46.2,-46.2 46.2,-77 330.15,-77 330.15,-46.2 46.2,-46.2"/>
<text text-anchor="start" x="53.2" y="-58.4" font-family="Arial" font-size="14.00">updated_at </text>
<text text-anchor="start" x="127.16" y="-58.4" font-family="Arial" font-size="14.00" fill="#666666">[timestamp with time zone]</text>
<polygon fill="none" stroke="black" stroke-width="3" points="44.7,-44.7 44.7,-668.5 331.65,-668.5 331.65,-44.7 44.7,-44.7"/>
</g>
</g>
</svg>
