<?xml version="1.0" encoding="UTF-8" standalone="no"?>
<!DOCTYPE svg PUBLIC "-//W3C//DTD SVG 1.1//EN"
 "http://www.w3.org/Graphics/SVG/1.1/DTD/svg11.dtd">
<!-- Generated by graphviz version 12.1.2 (20240928.0832)
 -->
<!-- Title: marketing.offer Pages: 1 -->
<svg width="760pt" height="972pt"
 viewBox="0.00 0.00 759.71 971.60" xmlns="http://www.w3.org/2000/svg" xmlns:xlink="http://www.w3.org/1999/xlink">
<g id="graph0" class="graph" transform="scale(1 1) rotate(0) translate(4 967.6)">
<title>marketing.offer</title>
<polygon fill="white" stroke="none" points="-4,4 -4,-967.6 755.71,-967.6 755.71,4 -4,4"/>
<!-- marketing.offer -->
<g id="node1" class="node">
<title>marketing.offer</title>
<polygon fill="#efefef" stroke="none" points="261.83,-261.8 261.83,-297.4 515.51,-297.4 515.51,-261.8 261.83,-261.8"/>
<polygon fill="none" stroke="black" points="261.83,-261.8 261.83,-297.4 515.51,-297.4 515.51,-261.8 261.83,-261.8"/>
<text text-anchor="start" x="270.2" y="-275.2" font-family="Arial Bold" font-size="18.00">marketing.offer</text>
<text text-anchor="start" x="382.65" y="-275.2" font-family="Arial" font-size="14.00">    </text>
<text text-anchor="start" x="413.77" y="-275.2" font-family="Arial" font-size="14.00" fill="#666666">[BASE TABLE]</text>
<polygon fill="none" stroke="black" points="261.83,-231 261.83,-261.8 515.51,-261.8 515.51,-231 261.83,-231"/>
<text text-anchor="start" x="268.83" y="-243.2" font-family="Arial" font-size="14.00">id </text>
<text text-anchor="start" x="283.62" y="-243.2" font-family="Arial" font-size="14.00" fill="#666666">[uuid]</text>
<polygon fill="none" stroke="black" points="261.83,-200.2 261.83,-231 515.51,-231 515.51,-200.2 261.83,-200.2"/>
<text text-anchor="start" x="268.83" y="-212.4" font-family="Arial" font-size="14.00">name </text>
<text text-anchor="start" x="307.74" y="-212.4" font-family="Arial" font-size="14.00" fill="#666666">[text]</text>
<polygon fill="none" stroke="black" points="261.83,-169.4 261.83,-200.2 515.51,-200.2 515.51,-169.4 261.83,-169.4"/>
<text text-anchor="start" x="268.83" y="-181.6" font-family="Arial" font-size="14.00">type </text>
<text text-anchor="start" x="299.18" y="-181.6" font-family="Arial" font-size="14.00" fill="#666666">[offer_type]</text>
<polygon fill="none" stroke="black" points="261.83,-138.6 261.83,-169.4 515.51,-169.4 515.51,-138.6 261.83,-138.6"/>
<text text-anchor="start" x="268.83" y="-150.8" font-family="Arial" font-size="14.00">default_price_minor </text>
<text text-anchor="start" x="395.68" y="-150.8" font-family="Arial" font-size="14.00" fill="#666666">[integer]</text>
<polygon fill="none" stroke="black" points="261.83,-107.8 261.83,-138.6 515.51,-138.6 515.51,-107.8 261.83,-107.8"/>
<text text-anchor="start" x="268.83" y="-120" font-family="Arial" font-size="14.00">active </text>
<text text-anchor="start" x="309.29" y="-120" font-family="Arial" font-size="14.00" fill="#666666">[boolean]</text>
<polygon fill="none" stroke="black" points="261.83,-77 261.83,-107.8 515.51,-107.8 515.51,-77 261.83,-77"/>
<text text-anchor="start" x="268.83" y="-89.2" font-family="Arial" font-size="14.00">created_at </text>
<text text-anchor="start" x="338.88" y="-89.2" font-family="Arial" font-size="14.00" fill="#666666">[timestamp with time zone]</text>
<polygon fill="none" stroke="black" points="261.83,-46.2 261.83,-77 515.51,-77 515.51,-46.2 261.83,-46.2"/>
<text text-anchor="start" x="268.83" y="-58.4" font-family="Arial" font-size="14.00">updated_at </text>
<text text-anchor="start" x="342.79" y="-58.4" font-family="Arial" font-size="14.00" fill="#666666">[timestamp with time zone]</text>
<polygon fill="none" stroke="black" stroke-width="3" points="260.33,-44.7 260.33,-298.9 517.01,-298.9 517.01,-44.7 260.33,-44.7"/>
</g>
<!-- marketing.pricing_plan -->
<g id="node2" class="node">
<title>marketing.pricing_plan</title>
<polygon fill="#efefef" stroke="none" points="43.2,-823.2 43.2,-858.8 350.14,-858.8 350.14,-823.2 43.2,-823.2"/>
<polygon fill="none" stroke="black" points="43.2,-823.2 43.2,-858.8 350.14,-858.8 350.14,-823.2 43.2,-823.2"/>
<text text-anchor="start" x="50.2" y="-836.6" font-family="Arial Bold" font-size="18.00">marketing.pricing_plan</text>
<text text-anchor="start" x="218.65" y="-836.6" font-family="Arial" font-size="14.00">    </text>
<text text-anchor="start" x="249.77" y="-836.6" font-family="Arial" font-size="14.00" fill="#666666">[BASE TABLE]</text>
<polygon fill="none" stroke="black" points="43.2,-792.4 43.2,-823.2 350.14,-823.2 350.14,-792.4 43.2,-792.4"/>
<text text-anchor="start" x="50.2" y="-804.6" font-family="Arial" font-size="14.00">id </text>
<text text-anchor="start" x="64.99" y="-804.6" font-family="Arial" font-size="14.00" fill="#666666">[uuid]</text>
<polygon fill="none" stroke="black" points="43.2,-761.6 43.2,-792.4 350.14,-792.4 350.14,-761.6 43.2,-761.6"/>
<text text-anchor="start" x="50.2" y="-773.8" font-family="Arial" font-size="14.00">offer_id </text>
<text text-anchor="start" x="100.79" y="-773.8" font-family="Arial" font-size="14.00" fill="#666666">[uuid]</text>
<polygon fill="none" stroke="black" points="43.2,-730.8 43.2,-761.6 350.14,-761.6 350.14,-730.8 43.2,-730.8"/>
<text text-anchor="start" x="50.2" y="-743" font-family="Arial" font-size="14.00">name </text>
<text text-anchor="start" x="89.11" y="-743" font-family="Arial" font-size="14.00" fill="#666666">[plan_type]</text>
<polygon fill="none" stroke="black" points="43.2,-700 43.2,-730.8 350.14,-730.8 350.14,-700 43.2,-700"/>
<text text-anchor="start" x="50.2" y="-712.2" font-family="Arial" font-size="14.00">version </text>
<text text-anchor="start" x="99.22" y="-712.2" font-family="Arial" font-size="14.00" fill="#666666">[integer]</text>
<polygon fill="none" stroke="black" points="43.2,-669.2 43.2,-700 350.14,-700 350.14,-669.2 43.2,-669.2"/>
<text text-anchor="start" x="50.2" y="-681.4" font-family="Arial" font-size="14.00">installments </text>
<text text-anchor="start" x="128.01" y="-681.4" font-family="Arial" font-size="14.00" fill="#666666">[integer]</text>
<polygon fill="none" stroke="black" points="43.2,-638.4 43.2,-669.2 350.14,-669.2 350.14,-638.4 43.2,-638.4"/>
<text text-anchor="start" x="50.2" y="-650.6" font-family="Arial" font-size="14.00">installment_amount_minor </text>
<text text-anchor="start" x="218.28" y="-650.6" font-family="Arial" font-size="14.00" fill="#666666">[integer]</text>
<polygon fill="none" stroke="black" points="43.2,-607.6 43.2,-638.4 350.14,-638.4 350.14,-607.6 43.2,-607.6"/>
<text text-anchor="start" x="50.2" y="-619.8" font-family="Arial" font-size="14.00">requires_first_last </text>
<text text-anchor="start" x="164.58" y="-619.8" font-family="Arial" font-size="14.00" fill="#666666">[boolean]</text>
<polygon fill="none" stroke="black" points="43.2,-576.8 43.2,-607.6 350.14,-607.6 350.14,-576.8 43.2,-576.8"/>
<text text-anchor="start" x="50.2" y="-589" font-family="Arial" font-size="14.00">effective_from </text>
<text text-anchor="start" x="142.01" y="-589" font-family="Arial" font-size="14.00" fill="#666666">[date]</text>
<polygon fill="none" stroke="black" points="43.2,-546 43.2,-576.8 350.14,-576.8 350.14,-546 43.2,-546"/>
<text text-anchor="start" x="50.2" y="-558.2" font-family="Arial" font-size="14.00">effective_to </text>
<text text-anchor="start" x="125.69" y="-558.2" font-family="Arial" font-size="14.00" fill="#666666">[date]</text>
<polygon fill="none" stroke="black" points="43.2,-515.2 43.2,-546 350.14,-546 350.14,-515.2 43.2,-515.2"/>
<text text-anchor="start" x="50.2" y="-527.4" font-family="Arial" font-size="14.00">created_at </text>
<text text-anchor="start" x="120.25" y="-527.4" font-family="Arial" font-size="14.00" fill="#666666">[timestamp with time zone]</text>
<polygon fill="none" stroke="black" points="43.2,-484.4 43.2,-515.2 350.14,-515.2 350.14,-484.4 43.2,-484.4"/>
<text text-anchor="start" x="50.2" y="-496.6" font-family="Arial" font-size="14.00">updated_at </text>
<text text-anchor="start" x="124.16" y="-496.6" font-family="Arial" font-size="14.00" fill="#666666">[timestamp with time zone]</text>
</g>
<!-- marketing.pricing_plan&#45;&gt;marketing.offer -->
<g id="edge1" class="edge">
<title>marketing.pricing_plan:offer_id&#45;&gt;marketing.offer:id</title>
<path fill="none" stroke="black" d="M361.21,-775.15C421.06,-751.47 375.76,-507.4 350.14,-441.2 329.03,-386.64 283.14,-398.08 261.83,-343.6 246.09,-303.37 217.63,-246.4 260.83,-246.4"/>
<polygon fill="black" stroke="black" points="361.3,-775.13 350.66,-772.51 356.06,-776.1 351.8,-776.88 351.8,-776.88 351.8,-776.88 356.06,-776.1 352.28,-781.37 361.3,-775.13"/>
<text text-anchor="start" x="358.14" y="-787" font-family="Arial" font-size="10.00">FOREIGN KEY (offer_id) REFERENCES marketing.offer(id)</text>
</g>
<!-- sales.deal -->
<g id="node3" class="node">
<title>sales.deal</title>
<polygon fill="#efefef" stroke="none" points="454.83,-884.8 454.83,-920.4 708.51,-920.4 708.51,-884.8 454.83,-884.8"/>
<polygon fill="none" stroke="black" points="454.83,-884.8 454.83,-920.4 708.51,-920.4 708.51,-884.8 454.83,-884.8"/>
<text text-anchor="start" x="484.69" y="-898.2" font-family="Arial Bold" font-size="18.00">sales.deal</text>
<text text-anchor="start" x="554.16" y="-898.2" font-family="Arial" font-size="14.00">    </text>
<text text-anchor="start" x="585.28" y="-898.2" font-family="Arial" font-size="14.00" fill="#666666">[BASE TABLE]</text>
<polygon fill="none" stroke="black" points="454.83,-854 454.83,-884.8 708.51,-884.8 708.51,-854 454.83,-854"/>
<text text-anchor="start" x="461.83" y="-866.2" font-family="Arial" font-size="14.00">id </text>
<text text-anchor="start" x="476.62" y="-866.2" font-family="Arial" font-size="14.00" fill="#666666">[uuid]</text>
<polygon fill="none" stroke="black" points="454.83,-823.2 454.83,-854 708.51,-854 708.51,-823.2 454.83,-823.2"/>
<text text-anchor="start" x="461.83" y="-835.4" font-family="Arial" font-size="14.00">opportunity_id </text>
<text text-anchor="start" x="553.67" y="-835.4" font-family="Arial" font-size="14.00" fill="#666666">[uuid]</text>
<polygon fill="none" stroke="black" points="454.83,-792.4 454.83,-823.2 708.51,-823.2 708.51,-792.4 454.83,-792.4"/>
<text text-anchor="start" x="461.83" y="-804.6" font-family="Arial" font-size="14.00">contact_id </text>
<text text-anchor="start" x="529.54" y="-804.6" font-family="Arial" font-size="14.00" fill="#666666">[uuid]</text>
<polygon fill="none" stroke="black" points="454.83,-761.6 454.83,-792.4 708.51,-792.4 708.51,-761.6 454.83,-761.6"/>
<text text-anchor="start" x="461.83" y="-773.8" font-family="Arial" font-size="14.00">closer_rep_id </text>
<text text-anchor="start" x="549.77" y="-773.8" font-family="Arial" font-size="14.00" fill="#666666">[uuid]</text>
<polygon fill="none" stroke="black" points="454.83,-730.8 454.83,-761.6 708.51,-761.6 708.51,-730.8 454.83,-730.8"/>
<text text-anchor="start" x="461.83" y="-743" font-family="Arial" font-size="14.00">offer_id </text>
<text text-anchor="start" x="512.42" y="-743" font-family="Arial" font-size="14.00" fill="#666666">[uuid]</text>
<polygon fill="none" stroke="black" points="454.83,-700 454.83,-730.8 708.51,-730.8 708.51,-700 454.83,-700"/>
<text text-anchor="start" x="461.83" y="-712.2" font-family="Arial" font-size="14.00">total_contract_value_minor </text>
<text text-anchor="start" x="633.81" y="-712.2" font-family="Arial" font-size="14.00" fill="#666666">[integer]</text>
<polygon fill="none" stroke="black" points="454.83,-669.2 454.83,-700 708.51,-700 708.51,-669.2 454.83,-669.2"/>
<text text-anchor="start" x="461.83" y="-681.4" font-family="Arial" font-size="14.00">plan_type_snapshot </text>
<text text-anchor="start" x="591.04" y="-681.4" font-family="Arial" font-size="14.00" fill="#666666">[plan_type]</text>
<polygon fill="none" stroke="black" points="454.83,-638.4 454.83,-669.2 708.51,-669.2 708.51,-638.4 454.83,-638.4"/>
<text text-anchor="start" x="461.83" y="-650.6" font-family="Arial" font-size="14.00">discount_pct </text>
<text text-anchor="start" x="544.33" y="-650.6" font-family="Arial" font-size="14.00" fill="#666666">[numeric]</text>
<polygon fill="none" stroke="black" points="454.83,-607.6 454.83,-638.4 708.51,-638.4 708.51,-607.6 454.83,-607.6"/>
<text text-anchor="start" x="461.83" y="-619.8" font-family="Arial" font-size="14.00">is_couple </text>
<text text-anchor="start" x="524.87" y="-619.8" font-family="Arial" font-size="14.00" fill="#666666">[boolean]</text>
<polygon fill="none" stroke="black" points="454.83,-576.8 454.83,-607.6 708.51,-607.6 708.51,-576.8 454.83,-576.8"/>
<text text-anchor="start" x="461.83" y="-589" font-family="Arial" font-size="14.00">partner_contact_id </text>
<text text-anchor="start" x="581.68" y="-589" font-family="Arial" font-size="14.00" fill="#666666">[uuid]</text>
<polygon fill="none" stroke="black" points="454.83,-546 454.83,-576.8 708.51,-576.8 708.51,-546 454.83,-546"/>
<text text-anchor="start" x="461.83" y="-558.2" font-family="Arial" font-size="14.00">deal_close_date </text>
<text text-anchor="start" x="567.69" y="-558.2" font-family="Arial" font-size="14.00" fill="#666666">[date]</text>
<polygon fill="none" stroke="black" points="454.83,-515.2 454.83,-546 708.51,-546 708.51,-515.2 454.83,-515.2"/>
<text text-anchor="start" x="461.83" y="-527.4" font-family="Arial" font-size="14.00">status </text>
<text text-anchor="start" x="503.07" y="-527.4" font-family="Arial" font-size="14.00" fill="#666666">[deal_status]</text>
<polygon fill="none" stroke="black" points="454.83,-484.4 454.83,-515.2 708.51,-515.2 708.51,-484.4 454.83,-484.4"/>
<text text-anchor="start" x="461.83" y="-496.6" font-family="Arial" font-size="14.00">close_id </text>
<text text-anchor="start" x="517.08" y="-496.6" font-family="Arial" font-size="14.00" fill="#666666">[text]</text>
<polygon fill="none" stroke="black" points="454.83,-453.6 454.83,-484.4 708.51,-484.4 708.51,-453.6 454.83,-453.6"/>
<text text-anchor="start" x="461.83" y="-465.8" font-family="Arial" font-size="14.00">created_at </text>
<text text-anchor="start" x="531.88" y="-465.8" font-family="Arial" font-size="14.00" fill="#666666">[timestamp with time zone]</text>
<polygon fill="none" stroke="black" points="454.83,-422.8 454.83,-453.6 708.51,-453.6 708.51,-422.8 454.83,-422.8"/>
<text text-anchor="start" x="461.83" y="-435" font-family="Arial" font-size="14.00">updated_at </text>
<text text-anchor="start" x="535.79" y="-435" font-family="Arial" font-size="14.00" fill="#666666">[timestamp with time zone]</text>
</g>
<!-- sales.deal&#45;&gt;marketing.offer -->
<g id="edge2" class="edge">
<title>sales.deal:offer_id&#45;&gt;marketing.offer:id</title>
<path fill="none" stroke="black" d="M443.59,-744.46C376.14,-720.07 416.23,-447.16 454.83,-379.6 470.38,-352.37 499.85,-370.77 515.51,-343.6 537.08,-306.17 559.71,-246.4 516.51,-246.4"/>
<polygon fill="black" stroke="black" points="443.64,-744.47 452.74,-750.58 448.9,-745.36 453.17,-746.09 453.17,-746.09 453.17,-746.09 448.9,-745.36 454.26,-741.71 443.64,-744.47"/>
<text text-anchor="start" x="460.83" y="-756.2" font-family="Arial" font-size="10.00">FOREIGN KEY (offer_id) REFERENCES marketing.offer(id)</text>
</g>
</g>
</svg>
