<?xml version="1.0" encoding="UTF-8" standalone="no"?>
<!DOCTYPE svg PUBLIC "-//W3C//DTD SVG 1.1//EN"
 "http://www.w3.org/Graphics/SVG/1.1/DTD/svg11.dtd">
<!-- Generated by graphviz version 12.1.2 (20240928.0832)
 -->
<!-- Title: sync.sync_runs Pages: 1 -->
<svg width="747pt" height="1064pt"
 viewBox="0.00 0.00 746.68 1064.00" xmlns="http://www.w3.org/2000/svg" xmlns:xlink="http://www.w3.org/1999/xlink">
<g id="graph0" class="graph" transform="scale(1 1) rotate(0) translate(4 1060)">
<title>sync.sync_runs</title>
<polygon fill="white" stroke="none" points="-4,4 -4,-1060 742.68,-1060 742.68,4 -4,4"/>
<!-- sync.sync_runs -->
<g id="node1" class="node">
<title>sync.sync_runs</title>
<polygon fill="#efefef" stroke="none" points="54.86,-974.2 54.86,-1009.8 308.54,-1009.8 308.54,-974.2 54.86,-974.2"/>
<polygon fill="none" stroke="black" points="54.86,-974.2 54.86,-1009.8 308.54,-1009.8 308.54,-974.2 54.86,-974.2"/>
<text text-anchor="start" x="64.21" y="-987.6" font-family="Arial Bold" font-size="18.00">sync.sync_runs</text>
<text text-anchor="start" x="174.7" y="-987.6" font-family="Arial" font-size="14.00">    </text>
<text text-anchor="start" x="205.82" y="-987.6" font-family="Arial" font-size="14.00" fill="#666666">[BASE TABLE]</text>
<polygon fill="none" stroke="black" points="54.86,-943.4 54.86,-974.2 308.54,-974.2 308.54,-943.4 54.86,-943.4"/>
<text text-anchor="start" x="61.86" y="-955.6" font-family="Arial" font-size="14.00">id </text>
<text text-anchor="start" x="76.65" y="-955.6" font-family="Arial" font-size="14.00" fill="#666666">[uuid]</text>
<polygon fill="none" stroke="black" points="54.86,-912.6 54.86,-943.4 308.54,-943.4 308.54,-912.6 54.86,-912.6"/>
<text text-anchor="start" x="61.86" y="-924.8" font-family="Arial" font-size="14.00">connection_id </text>
<text text-anchor="start" x="152.15" y="-924.8" font-family="Arial" font-size="14.00" fill="#666666">[uuid]</text>
<polygon fill="none" stroke="black" points="54.86,-881.8 54.86,-912.6 308.54,-912.6 308.54,-881.8 54.86,-881.8"/>
<text text-anchor="start" x="61.86" y="-894" font-family="Arial" font-size="14.00">run_type </text>
<text text-anchor="start" x="120.23" y="-894" font-family="Arial" font-size="14.00" fill="#666666">[sync.run_type]</text>
<polygon fill="none" stroke="black" points="54.86,-851 54.86,-881.8 308.54,-881.8 308.54,-851 54.86,-851"/>
<text text-anchor="start" x="61.86" y="-863.2" font-family="Arial" font-size="14.00">started_at </text>
<text text-anchor="start" x="128.01" y="-863.2" font-family="Arial" font-size="14.00" fill="#666666">[timestamp with time zone]</text>
<polygon fill="none" stroke="black" points="54.86,-820.2 54.86,-851 308.54,-851 308.54,-820.2 54.86,-820.2"/>
<text text-anchor="start" x="61.86" y="-832.4" font-family="Arial" font-size="14.00">finished_at </text>
<text text-anchor="start" x="133.47" y="-832.4" font-family="Arial" font-size="14.00" fill="#666666">[timestamp with time zone]</text>
<polygon fill="none" stroke="black" points="54.86,-789.4 54.86,-820.2 308.54,-820.2 308.54,-789.4 54.86,-789.4"/>
<text text-anchor="start" x="61.86" y="-801.6" font-family="Arial" font-size="14.00">rows_in </text>
<text text-anchor="start" x="113.99" y="-801.6" font-family="Arial" font-size="14.00" fill="#666666">[integer]</text>
<polygon fill="none" stroke="black" points="54.86,-758.6 54.86,-789.4 308.54,-789.4 308.54,-758.6 54.86,-758.6"/>
<text text-anchor="start" x="61.86" y="-770.8" font-family="Arial" font-size="14.00">rows_normalized </text>
<text text-anchor="start" x="171.57" y="-770.8" font-family="Arial" font-size="14.00" fill="#666666">[integer]</text>
<polygon fill="none" stroke="black" points="54.86,-727.8 54.86,-758.6 308.54,-758.6 308.54,-727.8 54.86,-727.8"/>
<text text-anchor="start" x="61.86" y="-740" font-family="Arial" font-size="14.00">status </text>
<text text-anchor="start" x="103.1" y="-740" font-family="Arial" font-size="14.00" fill="#666666">[sync.run_status]</text>
<polygon fill="none" stroke="black" points="54.86,-697 54.86,-727.8 308.54,-727.8 308.54,-697 54.86,-697"/>
<text text-anchor="start" x="61.86" y="-709.2" font-family="Arial" font-size="14.00">details </text>
<text text-anchor="start" x="106.22" y="-709.2" font-family="Arial" font-size="14.00" fill="#666666">[jsonb]</text>
<polygon fill="none" stroke="black" points="54.86,-666.2 54.86,-697 308.54,-697 308.54,-666.2 54.86,-666.2"/>
<text text-anchor="start" x="61.86" y="-678.4" font-family="Arial" font-size="14.00">error </text>
<text text-anchor="start" x="95.31" y="-678.4" font-family="Arial" font-size="14.00" fill="#666666">[text]</text>
<polygon fill="none" stroke="black" points="54.86,-635.4 54.86,-666.2 308.54,-666.2 308.54,-635.4 54.86,-635.4"/>
<text text-anchor="start" x="61.86" y="-647.6" font-family="Arial" font-size="14.00">created_at </text>
<text text-anchor="start" x="131.91" y="-647.6" font-family="Arial" font-size="14.00" fill="#666666">[timestamp with time zone]</text>
<polygon fill="none" stroke="black" points="54.86,-604.6 54.86,-635.4 308.54,-635.4 308.54,-604.6 54.86,-604.6"/>
<text text-anchor="start" x="61.86" y="-616.8" font-family="Arial" font-size="14.00">updated_at </text>
<text text-anchor="start" x="135.82" y="-616.8" font-family="Arial" font-size="14.00" fill="#666666">[timestamp with time zone]</text>
<polygon fill="none" stroke="black" stroke-width="3" points="53.36,-603.1 53.36,-1011.3 310.04,-1011.3 310.04,-603.1 53.36,-603.1"/>
</g>
<!-- sync.connections -->
<g id="node2" class="node">
<title>sync.connections</title>
<polygon fill="#efefef" stroke="none" points="43.2,-443.6 43.2,-479.2 320.21,-479.2 320.21,-443.6 43.2,-443.6"/>
<polygon fill="none" stroke="black" points="43.2,-443.6 43.2,-479.2 320.21,-479.2 320.21,-443.6 43.2,-443.6"/>
<text text-anchor="start" x="57.72" y="-457" font-family="Arial Bold" font-size="18.00">sync.connections</text>
<text text-anchor="start" x="181.19" y="-457" font-family="Arial" font-size="14.00">    </text>
<text text-anchor="start" x="212.31" y="-457" font-family="Arial" font-size="14.00" fill="#666666">[BASE TABLE]</text>
<polygon fill="none" stroke="black" points="43.2,-412.8 43.2,-443.6 320.21,-443.6 320.21,-412.8 43.2,-412.8"/>
<text text-anchor="start" x="50.2" y="-425" font-family="Arial" font-size="14.00">id </text>
<text text-anchor="start" x="64.99" y="-425" font-family="Arial" font-size="14.00" fill="#666666">[uuid]</text>
<polygon fill="none" stroke="black" points="43.2,-382 43.2,-412.8 320.21,-412.8 320.21,-382 43.2,-382"/>
<text text-anchor="start" x="50.2" y="-394.2" font-family="Arial" font-size="14.00">provider </text>
<text text-anchor="start" x="104.67" y="-394.2" font-family="Arial" font-size="14.00" fill="#666666">[sync.provider]</text>
<polygon fill="none" stroke="black" points="43.2,-351.2 43.2,-382 320.21,-382 320.21,-351.2 43.2,-351.2"/>
<text text-anchor="start" x="50.2" y="-363.4" font-family="Arial" font-size="14.00">external_account_id </text>
<text text-anchor="start" x="179.4" y="-363.4" font-family="Arial" font-size="14.00" fill="#666666">[text]</text>
<polygon fill="none" stroke="black" points="43.2,-320.4 43.2,-351.2 320.21,-351.2 320.21,-320.4 43.2,-320.4"/>
<text text-anchor="start" x="50.2" y="-332.6" font-family="Arial" font-size="14.00">account_label </text>
<text text-anchor="start" x="140.49" y="-332.6" font-family="Arial" font-size="14.00" fill="#666666">[text]</text>
<polygon fill="none" stroke="black" points="43.2,-289.6 43.2,-320.4 320.21,-320.4 320.21,-289.6 43.2,-289.6"/>
<text text-anchor="start" x="50.2" y="-301.8" font-family="Arial" font-size="14.00">status </text>
<text text-anchor="start" x="91.44" y="-301.8" font-family="Arial" font-size="14.00" fill="#666666">[sync.connection_status]</text>
<polygon fill="none" stroke="black" points="43.2,-258.8 43.2,-289.6 320.21,-289.6 320.21,-258.8 43.2,-258.8"/>
<text text-anchor="start" x="50.2" y="-271" font-family="Arial" font-size="14.00">token_secret_ref </text>
<text text-anchor="start" x="158.37" y="-271" font-family="Arial" font-size="14.00" fill="#666666">[text]</text>
<polygon fill="none" stroke="black" points="43.2,-228 43.2,-258.8 320.21,-258.8 320.21,-228 43.2,-228"/>
<text text-anchor="start" x="50.2" y="-240.2" font-family="Arial" font-size="14.00">scopes </text>
<text text-anchor="start" x="98.45" y="-240.2" font-family="Arial" font-size="14.00" fill="#666666">[text]</text>
<polygon fill="none" stroke="black" points="43.2,-197.2 43.2,-228 320.21,-228 320.21,-197.2 43.2,-197.2"/>
<text text-anchor="start" x="50.2" y="-209.4" font-family="Arial" font-size="14.00">settings </text>
<text text-anchor="start" x="102.34" y="-209.4" font-family="Arial" font-size="14.00" fill="#666666">[jsonb]</text>
<polygon fill="none" stroke="black" points="43.2,-166.4 43.2,-197.2 320.21,-197.2 320.21,-166.4 43.2,-166.4"/>
<text text-anchor="start" x="50.2" y="-178.6" font-family="Arial" font-size="14.00">sync_cursor </text>
<text text-anchor="start" x="129.56" y="-178.6" font-family="Arial" font-size="14.00" fill="#666666">[jsonb]</text>
<polygon fill="none" stroke="black" points="43.2,-135.6 43.2,-166.4 320.21,-166.4 320.21,-135.6 43.2,-135.6"/>
<text text-anchor="start" x="50.2" y="-147.8" font-family="Arial" font-size="14.00">last_synced_at </text>
<text text-anchor="start" x="147.48" y="-147.8" font-family="Arial" font-size="14.00" fill="#666666">[timestamp with time zone]</text>
<polygon fill="none" stroke="black" points="43.2,-104.8 43.2,-135.6 320.21,-135.6 320.21,-104.8 43.2,-104.8"/>
<text text-anchor="start" x="50.2" y="-117" font-family="Arial" font-size="14.00">last_error </text>
<text text-anchor="start" x="113.22" y="-117" font-family="Arial" font-size="14.00" fill="#666666">[text]</text>
<polygon fill="none" stroke="black" points="43.2,-74 43.2,-104.8 320.21,-104.8 320.21,-74 43.2,-74"/>
<text text-anchor="start" x="50.2" y="-86.2" font-family="Arial" font-size="14.00">created_at </text>
<text text-anchor="start" x="120.25" y="-86.2" font-family="Arial" font-size="14.00" fill="#666666">[timestamp with time zone]</text>
<polygon fill="none" stroke="black" points="43.2,-43.2 43.2,-74 320.21,-74 320.21,-43.2 43.2,-43.2"/>
<text text-anchor="start" x="50.2" y="-55.4" font-family="Arial" font-size="14.00">updated_at </text>
<text text-anchor="start" x="124.16" y="-55.4" font-family="Arial" font-size="14.00" fill="#666666">[timestamp with time zone]</text>
</g>
<!-- sync.sync_runs&#45;&gt;sync.connections -->
<g id="edge1" class="edge">
<title>sync.sync_runs:connection_id&#45;&gt;sync.connections:id</title>
<path fill="none" stroke="black" d="M318.56,-923.37C366.2,-872.99 373.61,-428.2 321.21,-428.2"/>
<polygon fill="black" stroke="black" points="318.74,-923.28 307.79,-923.84 313.99,-925.72 310.14,-927.69 310.14,-927.69 310.14,-927.69 313.99,-925.72 311.9,-931.85 318.74,-923.28"/>
<text text-anchor="start" x="316.54" y="-938" font-family="Arial" font-size="10.00">FOREIGN KEY (connection_id) REFERENCES sync.connections(id) ON DELETE CASCADE</text>
</g>
</g>
</svg>
